<svg width="800" height="300" viewBox="0 0 800 300" xmlns="http://www.w3.org/2000/svg"><defs><pattern id="satori_pattern_id_0" x="0" y="0" width="1" height="1" patternUnits="objectBoundingBox"><linearGradient id="satori_biid_0" x1="0" y1="0" x2="1.2054794520547945" y2="0.4520547945205471"><stop offset="0%" stop-color="rgba(15,23,42,0.9)"/><stop offset="100%" stop-color="rgba(139,92,246,0.05)"/></linearGradient><rect x="0" y="0" width="800" height="300" fill="url(#satori_biid_0)"/></pattern><clipPath id="satori_bc-id"><path x="0" y="0" width="800" height="300" d="M12,0 h776 a12,12 0 0 1 12,12 v276 a12,12 0 0 1 -12,12 h-776 a12,12 0 0 1 -12,-12 v-276 a12,12 0 0 1 12,-12"/></clipPath></defs><mask id="satori_ms-id-1" maskUnits="userSpaceOnUse"><rect x="0" y="0" width="800" height="300" fill="#fff"/><path x="0" y="0" width="800" height="300" fill="#000"  stroke-width="0" d="M12,0 h776 a12,12 0 0 1 12,12 v276 a12,12 0 0 1 -12,12 h-776 a12,12 0 0 1 -12,-12 v-276 a12,12 0 0 1 12,-12"/></mask><defs><filter id="satori_s-id-1" x="-50%" y="-133.33333333333331%" width="200%" height="366.66666666666663%"><feGaussianBlur stdDeviation="20" result="b"/><feFlood flood-color="rgba(139, 92, 246, 0.1)" in="SourceGraphic" result="f"/><feComposite in="f" in2="b" operator="in"/></filter></defs><g mask="url(#satori_ms-id-1)" filter="url(#satori_s-id-1)" opacity="1"><path x="0" y="0" width="800" height="300" fill="#fff" stroke="#fff" stroke-width="0" d="M12,0 h776 a12,12 0 0 1 12,12 v276 a12,12 0 0 1 -12,12 h-776 a12,12 0 0 1 -12,-12 v-276 a12,12 0 0 1 12,-12"/></g><mask id="satori_ms-id-0" maskUnits="userSpaceOnUse"><rect x="0" y="0" width="800" height="300" fill="#fff"/><path x="0" y="0" width="800" height="300" fill="#000"  stroke-width="0" d="M12,0 h776 a12,12 0 0 1 12,12 v276 a12,12 0 0 1 -12,12 h-776 a12,12 0 0 1 -12,-12 v-276 a12,12 0 0 1 12,-12"/></mask><defs><filter id="satori_s-id-0" x="-12.5%" y="-33.33333333333333%" width="125%" height="166.66666666666669%"><feGaussianBlur stdDeviation="10" result="b"/><feFlood flood-color="rgba(139, 92, 246, 0.3)" in="SourceGraphic" result="f"/><feComposite in="f" in2="b" operator="in"/></filter></defs><g mask="url(#satori_ms-id-0)" filter="url(#satori_s-id-0)" opacity="1"><path x="0" y="0" width="800" height="300" fill="#fff" stroke="#fff" stroke-width="0" d="M12,0 h776 a12,12 0 0 1 12,12 v276 a12,12 0 0 1 -12,12 h-776 a12,12 0 0 1 -12,-12 v-276 a12,12 0 0 1 12,-12"/></g><mask id="satori_om-id"><rect x="1" y="1" width="798" height="298" fill="#fff"/><path width="800" height="300" fill="none" stroke="#000" stroke-width="2" d="M3.5150000000000006,3.5150000000000006 A12,12 0 0 1 12,0 h776 a12,12 0 0 1 12,12 v276 a12,12 0 0 1 -12,12 h-776 a12,12 0 0 1 -12,-12 v-276 A12,12 0 0 1 3.5150000000000006,3.5150000000000006"/></mask><path x="0" y="0" width="800" height="300" fill="url(#satori_pattern_id_0)" d="M12,0 h776 a12,12 0 0 1 12,12 v276 a12,12 0 0 1 -12,12 h-776 a12,12 0 0 1 -12,-12 v-276 a12,12 0 0 1 12,-12"/><path width="800" height="300" clip-path="url(#satori_bc-id)" fill="none" stroke="rgba(139, 92, 246, 0.3)" stroke-width="2" d="M3.5150000000000006,3.5150000000000006 A12,12 0 0 1 12,0 h776 a12,12 0 0 1 12,12 v276 a12,12 0 0 1 -12,12 h-776 a12,12 0 0 1 -12,-12 v-276 A12,12 0 0 1 3.5150000000000006,3.5150000000000006"/><mask id="satori_om-id-0"><rect x="33" y="33" width="734" height="57" fill="#fff"/></mask><clipPath id="satori_bct-id-0-0"><path d="M44.0 39.1L44.0 59.0L34.4 59.0L34.4 39.1L44.0 39.1ZM39.6 49.0L43.3 57.8L43.3 40.2L39.6 49.0ZM38.8 49.0L35.1 40.4L35.1 57.7L38.8 49.0ZM39.2 50.0L35.7 58.2L42.7 58.2L39.2 50.0ZM35.7 39.8L39.2 48.1L42.7 39.8L35.7 39.8ZM56.5 39.1L56.5 59.0L46.8 59.0L46.8 39.1L56.5 39.1ZM52.0 49.0L55.7 57.8L55.7 40.2L52.0 49.0ZM51.2 49.0L47.5 40.4L47.5 57.7L51.2 49.0ZM51.6 50.0L48.1 58.2L55.1 58.2L51.6 50.0ZM48.1 39.8L51.6 48.1L55.1 39.8L48.1 39.8Z M80.8 39.1L80.8 41.2L74.4 41.2L74.4 59.0L71.8 59.0L71.8 41.2L65.4 41.2L65.4 39.1L80.8 39.1ZM88.2 59.3L88.2 59.3Q85.2 59.3 83.3 57.3Q81.4 55.3 81.4 52.0L81.4 52.0L81.4 51.5Q81.4 49.3 82.2 47.6Q83.1 45.9 84.6 44.9Q86.1 43.9 87.9 43.9L87.9 43.9Q90.7 43.9 92.3 45.8Q93.9 47.7 93.9 51.3L93.9 51.3L93.9 52.3L83.9 52.3Q84.0 54.5 85.2 55.8Q86.4 57.2 88.3 57.2L88.3 57.2Q89.6 57.2 90.6 56.6Q91.5 56.1 92.2 55.2L92.2 55.2L93.7 56.4Q91.9 59.3 88.2 59.3ZM87.9 46.0L87.9 46.0Q86.3 46.0 85.3 47.1Q84.2 48.2 84.0 50.2L84.0 50.2L91.4 50.2L91.4 50.0Q91.3 48.1 90.4 47.0Q89.4 46.0 87.9 46.0ZM102.8 57.2L102.8 57.2Q104.1 57.2 105.2 56.4Q106.2 55.5 106.3 54.3L106.3 54.3L108.7 54.3Q108.6 55.6 107.8 56.7Q107.0 57.9 105.6 58.6Q104.3 59.3 102.8 59.3L102.8 59.3Q99.8 59.3 98.0 57.2Q96.2 55.2 96.2 51.7L96.2 51.7L96.2 51.3Q96.2 49.1 97.0 47.5Q97.8 45.8 99.3 44.8Q100.8 43.9 102.8 43.9L102.8 43.9Q105.3 43.9 106.9 45.4Q108.6 46.9 108.7 49.3L108.7 49.3L106.3 49.3Q106.2 47.8 105.2 46.9Q104.2 46.0 102.8 46.0L102.8 46.0Q100.9 46.0 99.8 47.4Q98.7 48.8 98.7 51.4L98.7 51.4L98.7 51.9Q98.7 54.4 99.8 55.8Q100.8 57.2 102.8 57.2ZM114.0 38.0L114.0 46.0Q115.7 43.9 118.4 43.9L118.4 43.9Q123.1 43.9 123.2 49.2L123.2 49.2L123.2 59.0L120.6 59.0L120.6 49.2Q120.6 47.6 119.9 46.8Q119.2 46.1 117.7 46.1L117.7 46.1Q116.4 46.1 115.5 46.7Q114.6 47.4 114.0 48.4L114.0 48.4L114.0 59.0L111.5 59.0L111.5 38.0L114.0 38.0Z M141.5 50.1L141.5 50.1Q138.1 49.1 136.6 47.7Q135.0 46.3 135.0 44.2L135.0 44.2Q135.0 41.9 136.9 40.3Q138.8 38.8 141.8 38.8L141.8 38.8Q143.9 38.8 145.5 39.6Q147.1 40.4 147.9 41.8Q148.8 43.2 148.8 44.8L148.8 44.8L146.2 44.8Q146.2 43.0 145.0 42.0Q143.9 41.0 141.8 41.0L141.8 41.0Q139.9 41.0 138.8 41.8Q137.7 42.7 137.7 44.2L137.7 44.2Q137.7 45.4 138.7 46.2Q139.8 47.1 142.2 47.8Q144.7 48.5 146.1 49.3Q147.5 50.2 148.2 51.3Q148.9 52.4 148.9 53.9L148.9 53.9Q148.9 56.3 147.0 57.8Q145.1 59.3 141.9 59.3L141.9 59.3Q139.9 59.3 138.1 58.5Q136.3 57.7 135.4 56.3Q134.4 54.9 134.4 53.2L134.4 53.2L137.0 53.2Q137.0 55.0 138.4 56.1Q139.7 57.1 141.9 57.1L141.9 57.1Q144.0 57.1 145.1 56.3Q146.2 55.4 146.2 53.9Q146.2 52.5 145.2 51.7Q144.2 50.9 141.5 50.1ZM152.7 40.6L155.3 40.6L155.3 44.2L158.0 44.2L158.0 46.1L155.3 46.1L155.3 55.3Q155.3 56.2 155.6 56.6Q156.0 57.1 156.9 57.1L156.9 57.1Q157.3 57.1 158.1 56.9L158.1 56.9L158.1 59.0Q157.1 59.3 156.2 59.3L156.2 59.3Q154.5 59.3 153.6 58.2Q152.7 57.2 152.7 55.3L152.7 55.3L152.7 46.1L150.0 46.1L150.0 44.2L152.7 44.2L152.7 40.6ZM172.8 59.0L170.1 59.0Q169.9 58.5 169.8 57.4L169.8 57.4Q168.0 59.3 165.5 59.3L165.5 59.3Q163.4 59.3 162.0 58.0Q160.6 56.8 160.6 54.9L160.6 54.9Q160.6 52.6 162.3 51.3Q164.1 50.0 167.3 50.0L167.3 50.0L169.7 50.0L169.7 48.8Q169.7 47.5 168.9 46.7Q168.1 45.9 166.6 45.9L166.6 45.9Q165.2 45.9 164.3 46.6Q163.4 47.3 163.4 48.3L163.4 48.3L160.9 48.3Q160.9 47.2 161.6 46.1Q162.4 45.1 163.8 44.5Q165.1 43.9 166.7 43.9L166.7 43.9Q169.3 43.9 170.7 45.2Q172.2 46.5 172.2 48.7L172.2 48.7L172.2 55.5Q172.2 57.6 172.8 58.8L172.8 58.8L172.8 59.0ZM165.9 57.0L165.9 57.0Q167.1 57.0 168.2 56.4Q169.2 55.8 169.7 54.8L169.7 54.8L169.7 51.8L167.7 51.8Q163.1 51.8 163.1 54.5L163.1 54.5Q163.1 55.7 163.9 56.4Q164.7 57.0 165.9 57.0ZM182.1 57.2L182.1 57.2Q183.5 57.2 184.5 56.4Q185.5 55.5 185.6 54.3L185.6 54.3L188.0 54.3Q188.0 55.6 187.2 56.7Q186.3 57.9 185.0 58.6Q183.7 59.3 182.1 59.3L182.1 59.3Q179.1 59.3 177.3 57.2Q175.6 55.2 175.6 51.7L175.6 51.7L175.6 51.3Q175.6 49.1 176.3 47.5Q177.1 45.8 178.6 44.8Q180.1 43.9 182.1 43.9L182.1 43.9Q184.6 43.9 186.3 45.4Q187.9 46.9 188.0 49.3L188.0 49.3L185.6 49.3Q185.5 47.8 184.5 46.9Q183.6 46.0 182.1 46.0L182.1 46.0Q180.2 46.0 179.1 47.4Q178.1 48.8 178.1 51.4L178.1 51.4L178.1 51.9Q178.1 54.4 179.1 55.8Q180.2 57.2 182.1 57.2ZM200.2 59.0L195.0 52.1L193.4 53.8L193.4 59.0L190.9 59.0L190.9 38.0L193.4 38.0L193.4 50.7L194.8 49.1L199.4 44.2L202.4 44.2L196.7 50.4L203.1 59.0L200.2 59.0Z "/></clipPath><defs><pattern id="satori_pattern_id-0-0_0" x="0" y="0" width="1" height="1" patternUnits="objectBoundingBox"><linearGradient id="satori_biid-0-0_0" x1="0" y1="0" x2="1" y2="0"><stop offset="0%" stop-color="#8b5cf6"/><stop offset="100%" stop-color="#3b82f6"/></linearGradient><rect x="0" y="0" width="734" height="33" fill="url(#satori_biid-0-0_0)"/></pattern></defs><mask id="satori_om-id-0-0"><rect x="33" y="33" width="734" height="33" fill="#fff"/></mask><rect x="33" y="33" width="734" height="33" fill="url(#satori_pattern_id-0-0_0)" clip-path="url(#satori_bct-id-0-0)"/><path fill="#f1f5f9" d="M44.0 39.1L44.0 59.0L34.4 59.0L34.4 39.1L44.0 39.1ZM39.6 49.0L43.3 57.8L43.3 40.2L39.6 49.0ZM38.8 49.0L35.1 40.4L35.1 57.7L38.8 49.0ZM39.2 50.0L35.7 58.2L42.7 58.2L39.2 50.0ZM35.7 39.8L39.2 48.1L42.7 39.8L35.7 39.8ZM56.5 39.1L56.5 59.0L46.8 59.0L46.8 39.1L56.5 39.1ZM52.0 49.0L55.7 57.8L55.7 40.2L52.0 49.0ZM51.2 49.0L47.5 40.4L47.5 57.7L51.2 49.0ZM51.6 50.0L48.1 58.2L55.1 58.2L51.6 50.0ZM48.1 39.8L51.6 48.1L55.1 39.8L48.1 39.8Z M80.8 39.1L80.8 41.2L74.4 41.2L74.4 59.0L71.8 59.0L71.8 41.2L65.4 41.2L65.4 39.1L80.8 39.1ZM88.2 59.3L88.2 59.3Q85.2 59.3 83.3 57.3Q81.4 55.3 81.4 52.0L81.4 52.0L81.4 51.5Q81.4 49.3 82.2 47.6Q83.1 45.9 84.6 44.9Q86.1 43.9 87.9 43.9L87.9 43.9Q90.7 43.9 92.3 45.8Q93.9 47.7 93.9 51.3L93.9 51.3L93.9 52.3L83.9 52.3Q84.0 54.5 85.2 55.8Q86.4 57.2 88.3 57.2L88.3 57.2Q89.6 57.2 90.6 56.6Q91.5 56.1 92.2 55.2L92.2 55.2L93.7 56.4Q91.9 59.3 88.2 59.3ZM87.9 46.0L87.9 46.0Q86.3 46.0 85.3 47.1Q84.2 48.2 84.0 50.2L84.0 50.2L91.4 50.2L91.4 50.0Q91.3 48.1 90.4 47.0Q89.4 46.0 87.9 46.0ZM102.8 57.2L102.8 57.2Q104.1 57.2 105.2 56.4Q106.2 55.5 106.3 54.3L106.3 54.3L108.7 54.3Q108.6 55.6 107.8 56.7Q107.0 57.9 105.6 58.6Q104.3 59.3 102.8 59.3L102.8 59.3Q99.8 59.3 98.0 57.2Q96.2 55.2 96.2 51.7L96.2 51.7L96.2 51.3Q96.2 49.1 97.0 47.5Q97.8 45.8 99.3 44.8Q100.8 43.9 102.8 43.9L102.8 43.9Q105.3 43.9 106.9 45.4Q108.6 46.9 108.7 49.3L108.7 49.3L106.3 49.3Q106.2 47.8 105.2 46.9Q104.2 46.0 102.8 46.0L102.8 46.0Q100.9 46.0 99.8 47.4Q98.7 48.8 98.7 51.4L98.7 51.4L98.7 51.9Q98.7 54.4 99.8 55.8Q100.8 57.2 102.8 57.2ZM114.0 38.0L114.0 46.0Q115.7 43.9 118.4 43.9L118.4 43.9Q123.1 43.9 123.2 49.2L123.2 49.2L123.2 59.0L120.6 59.0L120.6 49.2Q120.6 47.6 119.9 46.8Q119.2 46.1 117.7 46.1L117.7 46.1Q116.4 46.1 115.5 46.7Q114.6 47.4 114.0 48.4L114.0 48.4L114.0 59.0L111.5 59.0L111.5 38.0L114.0 38.0Z M141.5 50.1L141.5 50.1Q138.1 49.1 136.6 47.7Q135.0 46.3 135.0 44.2L135.0 44.2Q135.0 41.9 136.9 40.3Q138.8 38.8 141.8 38.8L141.8 38.8Q143.9 38.8 145.5 39.6Q147.1 40.4 147.9 41.8Q148.8 43.2 148.8 44.8L148.8 44.8L146.2 44.8Q146.2 43.0 145.0 42.0Q143.9 41.0 141.8 41.0L141.8 41.0Q139.9 41.0 138.8 41.8Q137.7 42.7 137.7 44.2L137.7 44.2Q137.7 45.4 138.7 46.2Q139.8 47.1 142.2 47.8Q144.7 48.5 146.1 49.3Q147.5 50.2 148.2 51.3Q148.9 52.4 148.9 53.9L148.9 53.9Q148.9 56.3 147.0 57.8Q145.1 59.3 141.9 59.3L141.9 59.3Q139.9 59.3 138.1 58.5Q136.3 57.7 135.4 56.3Q134.4 54.9 134.4 53.2L134.4 53.2L137.0 53.2Q137.0 55.0 138.4 56.1Q139.7 57.1 141.9 57.1L141.9 57.1Q144.0 57.1 145.1 56.3Q146.2 55.4 146.2 53.9Q146.2 52.5 145.2 51.7Q144.2 50.9 141.5 50.1ZM152.7 40.6L155.3 40.6L155.3 44.2L158.0 44.2L158.0 46.1L155.3 46.1L155.3 55.3Q155.3 56.2 155.6 56.6Q156.0 57.1 156.9 57.1L156.9 57.1Q157.3 57.1 158.1 56.9L158.1 56.9L158.1 59.0Q157.1 59.3 156.2 59.3L156.2 59.3Q154.5 59.3 153.6 58.2Q152.7 57.2 152.7 55.3L152.7 55.3L152.7 46.1L150.0 46.1L150.0 44.2L152.7 44.2L152.7 40.6ZM172.8 59.0L170.1 59.0Q169.9 58.5 169.8 57.4L169.8 57.4Q168.0 59.3 165.5 59.3L165.5 59.3Q163.4 59.3 162.0 58.0Q160.6 56.8 160.6 54.9L160.6 54.9Q160.6 52.6 162.3 51.3Q164.1 50.0 167.3 50.0L167.3 50.0L169.7 50.0L169.7 48.8Q169.7 47.5 168.9 46.7Q168.1 45.9 166.6 45.9L166.6 45.9Q165.2 45.9 164.3 46.6Q163.4 47.3 163.4 48.3L163.4 48.3L160.9 48.3Q160.9 47.2 161.6 46.1Q162.4 45.1 163.8 44.5Q165.1 43.9 166.7 43.9L166.7 43.9Q169.3 43.9 170.7 45.2Q172.2 46.5 172.2 48.7L172.2 48.7L172.2 55.5Q172.2 57.6 172.8 58.8L172.8 58.8L172.8 59.0ZM165.9 57.0L165.9 57.0Q167.1 57.0 168.2 56.4Q169.2 55.8 169.7 54.8L169.7 54.8L169.7 51.8L167.7 51.8Q163.1 51.8 163.1 54.5L163.1 54.5Q163.1 55.7 163.9 56.4Q164.7 57.0 165.9 57.0ZM182.1 57.2L182.1 57.2Q183.5 57.2 184.5 56.4Q185.5 55.5 185.6 54.3L185.6 54.3L188.0 54.3Q188.0 55.6 187.2 56.7Q186.3 57.9 185.0 58.6Q183.7 59.3 182.1 59.3L182.1 59.3Q179.1 59.3 177.3 57.2Q175.6 55.2 175.6 51.7L175.6 51.7L175.6 51.3Q175.6 49.1 176.3 47.5Q177.1 45.8 178.6 44.8Q180.1 43.9 182.1 43.9L182.1 43.9Q184.6 43.9 186.3 45.4Q187.9 46.9 188.0 49.3L188.0 49.3L185.6 49.3Q185.5 47.8 184.5 46.9Q183.6 46.0 182.1 46.0L182.1 46.0Q180.2 46.0 179.1 47.4Q178.1 48.8 178.1 51.4L178.1 51.4L178.1 51.9Q178.1 54.4 179.1 55.8Q180.2 57.2 182.1 57.2ZM200.2 59.0L195.0 52.1L193.4 53.8L193.4 59.0L190.9 59.0L190.9 38.0L193.4 38.0L193.4 50.7L194.8 49.1L199.4 44.2L202.4 44.2L196.7 50.4L203.1 59.0L200.2 59.0Z "/><mask id="satori_om-id-0-1"><rect x="33" y="74" width="734" height="16" fill="#fff"/></mask><path fill="rgba(241, 245, 249, 0.6)" d="M41.0 77.0L41.0 78.1L37.8 78.1L37.8 87.0L36.5 87.0L36.5 78.1L33.3 78.1L33.3 77.0L41.0 77.0ZM44.7 87.1L44.7 87.1Q43.2 87.1 42.3 86.1Q41.3 85.1 41.3 83.5L41.3 83.5L41.3 83.3Q41.3 82.2 41.7 81.3Q42.2 80.4 42.9 79.9Q43.7 79.5 44.5 79.5L44.5 79.5Q46.0 79.5 46.8 80.4Q47.6 81.4 47.6 83.1L47.6 83.1L47.6 83.7L42.6 83.7Q42.6 84.7 43.2 85.4Q43.8 86.1 44.8 86.1L44.8 86.1Q45.4 86.1 45.9 85.8Q46.4 85.5 46.7 85.1L46.7 85.1L47.5 85.7Q46.6 87.1 44.7 87.1ZM44.5 80.5L44.5 80.5Q43.8 80.5 43.3 81.1Q42.7 81.6 42.6 82.6L42.6 82.6L46.3 82.6L46.3 82.5Q46.3 81.6 45.8 81.0Q45.3 80.5 44.5 80.5ZM52.0 86.1L52.0 86.1Q52.7 86.1 53.2 85.7Q53.7 85.3 53.8 84.7L53.8 84.7L55.0 84.7Q54.9 85.3 54.5 85.9Q54.1 86.4 53.4 86.8Q52.8 87.1 52.0 87.1L52.0 87.1Q50.5 87.1 49.6 86.1Q48.7 85.1 48.7 83.4L48.7 83.4L48.7 83.1Q48.7 82.1 49.1 81.2Q49.5 80.4 50.3 79.9Q51.0 79.5 52.0 79.5L52.0 79.5Q53.3 79.5 54.1 80.2Q54.9 80.9 55.0 82.1L55.0 82.1L53.8 82.1Q53.7 81.4 53.2 81.0Q52.7 80.5 52.0 80.5L52.0 80.5Q51.0 80.5 50.5 81.2Q50.0 81.9 50.0 83.2L50.0 83.2L50.0 83.4Q50.0 84.7 50.5 85.4Q51.0 86.1 52.0 86.1ZM57.6 76.5L57.6 80.5Q58.5 79.5 59.8 79.5L59.8 79.5Q62.2 79.5 62.2 82.1L62.2 82.1L62.2 87.0L60.9 87.0L60.9 82.1Q60.9 81.3 60.6 80.9Q60.2 80.5 59.4 80.5L59.4 80.5Q58.8 80.5 58.4 80.9Q57.9 81.2 57.6 81.7L57.6 81.7L57.6 87.0L56.4 87.0L56.4 76.5L57.6 76.5ZM64.1 79.6L65.3 79.6L65.3 80.5Q66.2 79.5 67.5 79.5L67.5 79.5Q69.9 79.5 69.9 82.1L69.9 82.1L69.9 87.0L68.6 87.0L68.6 82.1Q68.6 81.3 68.3 80.9Q67.9 80.5 67.2 80.5L67.2 80.5Q66.5 80.5 66.1 80.9Q65.6 81.2 65.4 81.7L65.4 81.7L65.4 87.0L64.1 87.0L64.1 79.6ZM71.5 83.3L71.5 83.2Q71.5 82.1 71.9 81.3Q72.3 80.4 73.1 79.9Q73.9 79.5 74.8 79.5L74.8 79.5Q76.3 79.5 77.3 80.5Q78.2 81.5 78.2 83.3L78.2 83.3L78.2 83.4Q78.2 84.5 77.8 85.3Q77.4 86.2 76.6 86.6Q75.8 87.1 74.8 87.1L74.8 87.1Q73.3 87.1 72.4 86.1Q71.5 85.0 71.5 83.3L71.5 83.3ZM72.8 83.4L72.8 83.4Q72.8 84.6 73.3 85.3Q73.9 86.1 74.8 86.1L74.8 86.1Q75.8 86.1 76.4 85.3Q76.9 84.6 76.9 83.2L76.9 83.2Q76.9 82.0 76.4 81.2Q75.8 80.5 74.8 80.5L74.8 80.5Q73.9 80.5 73.3 81.2Q72.8 82.0 72.8 83.4ZM81.2 76.5L81.2 87.0L79.9 87.0L79.9 76.5L81.2 76.5ZM82.9 83.3L82.9 83.2Q82.9 82.1 83.3 81.3Q83.7 80.4 84.5 79.9Q85.2 79.5 86.2 79.5L86.2 79.5Q87.7 79.5 88.7 80.5Q89.6 81.5 89.6 83.3L89.6 83.3L89.6 83.4Q89.6 84.5 89.2 85.3Q88.8 86.2 88.0 86.6Q87.2 87.1 86.2 87.1L86.2 87.1Q84.7 87.1 83.8 86.1Q82.9 85.0 82.9 83.3L82.9 83.3ZM84.1 83.4L84.1 83.4Q84.1 84.6 84.7 85.3Q85.3 86.1 86.2 86.1L86.2 86.1Q87.2 86.1 87.8 85.3Q88.3 84.6 88.3 83.2L88.3 83.2Q88.3 82.0 87.8 81.2Q87.2 80.5 86.2 80.5L86.2 80.5Q85.3 80.5 84.7 81.2Q84.1 82.0 84.1 83.4ZM90.9 83.2L90.9 83.2Q90.9 81.5 91.7 80.5Q92.5 79.5 93.8 79.5L93.8 79.5Q95.2 79.5 95.9 80.4L95.9 80.4L96.0 79.6L97.1 79.6L97.1 86.8Q97.1 88.2 96.3 89.1Q95.4 89.9 94.0 89.9L94.0 89.9Q93.2 89.9 92.4 89.6Q91.7 89.2 91.3 88.6L91.3 88.6L91.9 87.9Q92.7 88.9 93.9 88.9L93.9 88.9Q94.8 88.9 95.3 88.3Q95.9 87.8 95.9 86.9L95.9 86.9L95.9 86.3Q95.1 87.1 93.8 87.1L93.8 87.1Q92.5 87.1 91.7 86.1Q90.9 85.0 90.9 83.2ZM92.2 83.4L92.2 83.4Q92.2 84.6 92.7 85.3Q93.2 86.1 94.1 86.1L94.1 86.1Q95.3 86.1 95.9 85.0L95.9 85.0L95.9 81.6Q95.3 80.5 94.1 80.5L94.1 80.5Q93.2 80.5 92.7 81.2Q92.2 82.0 92.2 83.4ZM100.4 79.6L100.4 87.0L99.1 87.0L99.1 79.6L100.4 79.6ZM99.0 77.6L99.0 77.6Q99.0 77.3 99.2 77.1Q99.4 76.9 99.8 76.9Q100.2 76.9 100.3 77.1Q100.5 77.3 100.5 77.6Q100.5 77.9 100.3 78.1Q100.2 78.3 99.8 78.3Q99.4 78.3 99.2 78.1Q99.0 77.9 99.0 77.6ZM105.5 87.1L105.5 87.1Q104.0 87.1 103.1 86.1Q102.1 85.1 102.1 83.5L102.1 83.5L102.1 83.3Q102.1 82.2 102.5 81.3Q103.0 80.4 103.7 79.9Q104.5 79.5 105.3 79.5L105.3 79.5Q106.8 79.5 107.6 80.4Q108.4 81.4 108.4 83.1L108.4 83.1L108.4 83.7L103.4 83.7Q103.4 84.7 104.0 85.4Q104.6 86.1 105.6 86.1L105.6 86.1Q106.2 86.1 106.7 85.8Q107.2 85.5 107.5 85.1L107.5 85.1L108.3 85.7Q107.4 87.1 105.5 87.1ZM105.3 80.5L105.3 80.5Q104.6 80.5 104.1 81.1Q103.5 81.6 103.4 82.6L103.4 82.6L107.1 82.6L107.1 82.5Q107.1 81.6 106.6 81.0Q106.1 80.5 105.3 80.5ZM114.2 85.0L114.2 85.0Q114.2 84.5 113.8 84.2Q113.4 83.9 112.4 83.7Q111.5 83.5 110.9 83.2Q110.3 83.0 110.1 82.6Q109.8 82.2 109.8 81.6L109.8 81.6Q109.8 80.7 110.6 80.1Q111.3 79.5 112.5 79.5L112.5 79.5Q113.8 79.5 114.6 80.1Q115.4 80.8 115.4 81.8L115.4 81.8L114.1 81.8Q114.1 81.2 113.6 80.9Q113.2 80.5 112.5 80.5L112.5 80.5Q111.8 80.5 111.4 80.8Q111.1 81.1 111.1 81.6L111.1 81.6Q111.1 82.0 111.4 82.3Q111.8 82.5 112.7 82.7Q113.7 82.9 114.3 83.2Q114.9 83.5 115.1 83.9Q115.4 84.3 115.4 84.9L115.4 84.9Q115.4 85.9 114.6 86.5Q113.8 87.1 112.6 87.1L112.6 87.1Q111.7 87.1 111.0 86.8Q110.3 86.5 109.9 85.9Q109.5 85.4 109.5 84.7L109.5 84.7L110.8 84.7Q110.8 85.3 111.3 85.7Q111.8 86.1 112.6 86.1L112.6 86.1Q113.3 86.1 113.7 85.8Q114.2 85.5 114.2 85.0Z M122.8 77.0L122.8 87.0L121.5 87.0L121.5 77.0L122.8 77.0Z M133.3 79.6L135.0 85.2L136.5 79.6L137.7 79.6L135.6 87.0L134.5 87.0L132.7 81.4L131.0 87.0L130.0 87.0L127.8 79.6L129.1 79.6L130.5 85.1L132.3 79.6L133.3 79.6ZM138.7 83.3L138.7 83.2Q138.7 82.1 139.1 81.3Q139.5 80.4 140.3 79.9Q141.0 79.5 142.0 79.5L142.0 79.5Q143.5 79.5 144.5 80.5Q145.4 81.5 145.4 83.3L145.4 83.3L145.4 83.4Q145.4 84.5 145.0 85.3Q144.6 86.2 143.8 86.6Q143.0 87.1 142.0 87.1L142.0 87.1Q140.5 87.1 139.6 86.1Q138.7 85.0 138.7 83.3L138.7 83.3ZM139.9 83.4L139.9 83.4Q139.9 84.6 140.5 85.3Q141.1 86.1 142.0 86.1L142.0 86.1Q143.0 86.1 143.6 85.3Q144.1 84.6 144.1 83.2L144.1 83.2Q144.1 82.0 143.6 81.2Q143.0 80.5 142.0 80.5L142.0 80.5Q141.1 80.5 140.5 81.2Q139.9 82.0 139.9 83.4ZM150.6 79.6L150.6 80.7Q150.3 80.7 149.9 80.7L149.9 80.7Q148.7 80.7 148.3 81.7L148.3 81.7L148.3 87.0L147.0 87.0L147.0 79.6L148.2 79.6L148.2 80.4Q148.9 79.5 150.0 79.5L150.0 79.5Q150.4 79.5 150.6 79.6L150.6 79.6ZM156.4 87.0L153.8 83.6L153.0 84.4L153.0 87.0L151.7 87.0L151.7 76.5L153.0 76.5L153.0 82.8L153.7 82.0L156.0 79.6L157.5 79.6L154.6 82.7L157.9 87.0L156.4 87.0Z M167.1 79.6L168.8 85.2L170.3 79.6L171.5 79.6L169.4 87.0L168.3 87.0L166.5 81.4L164.8 87.0L163.8 87.0L161.6 79.6L162.9 79.6L164.3 85.1L166.1 79.6L167.1 79.6ZM174.2 79.6L174.2 87.0L172.9 87.0L172.9 79.6L174.2 79.6ZM172.8 77.6L172.8 77.6Q172.8 77.3 173.0 77.1Q173.2 76.9 173.6 76.9Q173.9 76.9 174.1 77.1Q174.3 77.3 174.3 77.6Q174.3 77.9 174.1 78.1Q173.9 78.3 173.6 78.3Q173.2 78.3 173.0 78.1Q172.8 77.9 172.8 77.6ZM176.7 77.8L177.9 77.8L177.9 79.6L179.3 79.6L179.3 80.6L177.9 80.6L177.9 85.2Q177.9 85.6 178.1 85.8Q178.3 86.0 178.7 86.0L178.7 86.0Q179.0 86.0 179.3 86.0L179.3 86.0L179.3 87.0Q178.8 87.1 178.4 87.1L178.4 87.1Q177.5 87.1 177.1 86.6Q176.7 86.1 176.7 85.2L176.7 85.2L176.7 80.6L175.3 80.6L175.3 79.6L176.7 79.6L176.7 77.8ZM182.0 76.5L182.0 80.5Q182.9 79.5 184.2 79.5L184.2 79.5Q186.6 79.5 186.6 82.1L186.6 82.1L186.6 87.0L185.3 87.0L185.3 82.1Q185.3 81.3 185.0 80.9Q184.6 80.5 183.8 80.5L183.8 80.5Q183.2 80.5 182.8 80.9Q182.3 81.2 182.0 81.7L182.0 81.7L182.0 87.0L180.8 87.0L180.8 76.5L182.0 76.5Z "/><mask id="satori_om-id-1"><rect x="33" y="114" width="734" height="104" fill="#fff"/></mask><defs><clipPath id="satori_bc-id-1-0"><path x="33" y="114" width="94" height="46" d="M41,114 h78 a8,8 0 0 1 8,8 v30 a8,8 0 0 1 -8,8 h-78 a8,8 0 0 1 -8,-8 v-30 a8,8 0 0 1 8,-8"/></clipPath></defs><mask id="satori_om-id-1-0"><rect x="34" y="115" width="92" height="44" fill="#fff"/><path width="94" height="46" fill="none" stroke="#000" stroke-width="2" d="M35.343,116.343 A8,8 0 0 1 41,114 h78 a8,8 0 0 1 8,8 v30 a8,8 0 0 1 -8,8 h-78 a8,8 0 0 1 -8,-8 v-30 A8,8 0 0 1 35.343,116.343"/></mask><path x="33" y="114" width="94" height="46" fill="rgba(NaN, NaN, 7, 0.1)" d="M41,114 h78 a8,8 0 0 1 8,8 v30 a8,8 0 0 1 -8,8 h-78 a8,8 0 0 1 -8,-8 v-30 a8,8 0 0 1 8,-8"/><path width="94" height="46" clip-path="url(#satori_bc-id-1-0)" fill="none" stroke="rgba(NaN, NaN, 7, 0.3)" stroke-width="2" d="M35.343,116.343 A8,8 0 0 1 41,114 h78 a8,8 0 0 1 8,8 v30 a8,8 0 0 1 -8,8 h-78 a8,8 0 0 1 -8,-8 v-30 A8,8 0 0 1 35.343,116.343"/><mask id="satori_om-id-1-0-0"><rect x="48" y="125" width="24" height="24" fill="#fff"/></mask><path x="48" y="125" width="24" height="24" fill="hsl(47, 70%, 55%)" d="M52,125 h16 a4,4 0 0 1 4,4 v16 a4,4 0 0 1 -4,4 h-16 a4,4 0 0 1 -4,-4 v-16 a4,4 0 0 1 4,-4"/><path fill="#ffffff" d="M61.5 133.6L61.5 134.7Q61.2 134.7 60.9 134.7L60.9 134.7Q59.7 134.7 59.2 135.7L59.2 135.7L59.2 141.0L58.0 141.0L58.0 133.6L59.2 133.6L59.2 134.4Q59.8 133.5 61.0 133.5L61.0 133.5Q61.3 133.5 61.5 133.6L61.5 133.6Z "/><mask id="satori_om-id-1-0-1"><rect x="80" y="129" width="32" height="16" fill="#fff"/></mask><path fill="#f1f5f9" d="M84.5 134.6L84.5 135.7Q84.2 135.7 83.9 135.7L83.9 135.7Q82.7 135.7 82.2 136.7L82.2 136.7L82.2 142.0L81.0 142.0L81.0 134.6L82.2 134.6L82.2 135.4Q82.8 134.5 84.0 134.5L84.0 134.5Q84.3 134.5 84.5 134.6L84.5 134.6ZM88.6 142.1L88.6 142.1Q87.1 142.1 86.2 141.1Q85.2 140.1 85.2 138.5L85.2 138.5L85.2 138.3Q85.2 137.2 85.7 136.3Q86.1 135.4 86.8 134.9Q87.6 134.5 88.5 134.5L88.5 134.5Q89.9 134.5 90.7 135.4Q91.5 136.4 91.5 138.1L91.5 138.1L91.5 138.7L86.5 138.7Q86.5 139.7 87.1 140.4Q87.8 141.1 88.7 141.1L88.7 141.1Q89.4 141.1 89.8 140.8Q90.3 140.5 90.7 140.1L90.7 140.1L91.4 140.7Q90.5 142.1 88.6 142.1ZM88.5 135.5L88.5 135.5Q87.7 135.5 87.2 136.1Q86.7 136.6 86.5 137.6L86.5 137.6L90.3 137.6L90.3 137.5Q90.2 136.6 89.7 136.0Q89.3 135.5 88.5 135.5ZM98.9 142.0L97.5 142.0Q97.4 141.8 97.4 141.2L97.4 141.2Q96.5 142.1 95.3 142.1L95.3 142.1Q94.2 142.1 93.5 141.5Q92.8 140.9 92.8 139.9L92.8 139.9Q92.8 138.8 93.6 138.1Q94.5 137.5 96.1 137.5L96.1 137.5L97.3 137.5L97.3 136.9Q97.3 136.3 97.0 135.9Q96.6 135.5 95.8 135.5L95.8 135.5Q95.1 135.5 94.6 135.8Q94.2 136.2 94.2 136.6L94.2 136.6L92.9 136.6Q92.9 136.1 93.3 135.6Q93.7 135.1 94.4 134.8Q95.1 134.5 95.9 134.5L95.9 134.5Q97.1 134.5 97.9 135.1Q98.6 135.7 98.6 136.9L98.6 136.9L98.6 140.3Q98.6 141.3 98.9 141.9L98.9 141.9L98.9 142.0ZM95.4 141.0L95.4 141.0Q96.0 141.0 96.6 140.7Q97.1 140.4 97.3 139.9L97.3 139.9L97.3 138.4L96.4 138.4Q94.0 138.4 94.0 139.8L94.0 139.8Q94.0 140.4 94.4 140.7Q94.8 141.0 95.4 141.0ZM103.6 141.1L103.6 141.1Q104.2 141.1 104.7 140.7Q105.3 140.3 105.3 139.7L105.3 139.7L106.5 139.7Q106.5 140.3 106.1 140.9Q105.7 141.4 105.0 141.8Q104.3 142.1 103.6 142.1L103.6 142.1Q102.1 142.1 101.2 141.1Q100.3 140.1 100.3 138.4L100.3 138.4L100.3 138.1Q100.3 137.1 100.7 136.2Q101.1 135.4 101.8 134.9Q102.5 134.5 103.6 134.5L103.6 134.5Q104.8 134.5 105.6 135.2Q106.4 135.9 106.5 137.1L106.5 137.1L105.3 137.1Q105.3 136.4 104.8 136.0Q104.3 135.5 103.6 135.5L103.6 135.5Q102.6 135.5 102.1 136.2Q101.5 136.9 101.5 138.2L101.5 138.2L101.5 138.4Q101.5 139.7 102.1 140.4Q102.6 141.1 103.6 141.1ZM108.4 132.8L109.6 132.8L109.6 134.6L111.0 134.6L111.0 135.6L109.6 135.6L109.6 140.2Q109.6 140.6 109.8 140.8Q110.0 141.0 110.5 141.0L110.5 141.0Q110.7 141.0 111.1 141.0L111.1 141.0L111.1 142.0Q110.6 142.1 110.1 142.1L110.1 142.1Q109.2 142.1 108.8 141.6Q108.4 141.1 108.4 140.2L108.4 140.2L108.4 135.6L107.0 135.6L107.0 134.6L108.4 134.6L108.4 132.8Z "/><defs><clipPath id="satori_bc-id-1-1"><path x="139" y="114" width="124" height="46" d="M147,114 h108 a8,8 0 0 1 8,8 v30 a8,8 0 0 1 -8,8 h-108 a8,8 0 0 1 -8,-8 v-30 a8,8 0 0 1 8,-8"/></clipPath></defs><mask id="satori_om-id-1-1"><rect x="140" y="115" width="122" height="44" fill="#fff"/><path width="124" height="46" fill="none" stroke="#000" stroke-width="2" d="M141.343,116.343 A8,8 0 0 1 147,114 h108 a8,8 0 0 1 8,8 v30 a8,8 0 0 1 -8,8 h-108 a8,8 0 0 1 -8,-8 v-30 A8,8 0 0 1 141.343,116.343"/></mask><path x="139" y="114" width="124" height="46" fill="rgba(NaN, NaN, 7, 0.1)" d="M147,114 h108 a8,8 0 0 1 8,8 v30 a8,8 0 0 1 -8,8 h-108 a8,8 0 0 1 -8,-8 v-30 a8,8 0 0 1 8,-8"/><path width="124" height="46" clip-path="url(#satori_bc-id-1-1)" fill="none" stroke="rgba(NaN, NaN, 7, 0.3)" stroke-width="2" d="M141.343,116.343 A8,8 0 0 1 147,114 h108 a8,8 0 0 1 8,8 v30 a8,8 0 0 1 -8,8 h-108 a8,8 0 0 1 -8,-8 v-30 A8,8 0 0 1 141.343,116.343"/><mask id="satori_om-id-1-1-0"><rect x="154" y="125" width="24" height="24" fill="#fff"/></mask><path x="154" y="125" width="24" height="24" fill="hsl(107, 70%, 55%)" d="M158,125 h16 a4,4 0 0 1 4,4 v16 a4,4 0 0 1 -4,4 h-16 a4,4 0 0 1 -4,-4 v-16 a4,4 0 0 1 4,-4"/><path fill="#ffffff" d="M164.4 131.8L165.7 131.8L165.7 133.6L167.1 133.6L167.1 134.6L165.7 134.6L165.7 139.2Q165.7 139.6 165.9 139.8Q166.0 140.0 166.5 140.0L166.5 140.0Q166.7 140.0 167.1 140.0L167.1 140.0L167.1 141.0Q166.6 141.1 166.1 141.1L166.1 141.1Q165.3 141.1 164.8 140.6Q164.4 140.1 164.4 139.2L164.4 139.2L164.4 134.6L163.1 134.6L163.1 133.6L164.4 133.6L164.4 131.8Z "/><mask id="satori_om-id-1-1-1"><rect x="186" y="129" width="62" height="16" fill="#fff"/></mask><path fill="#f1f5f9" d="M187.4 132.8L188.7 132.8L188.7 134.6L190.1 134.6L190.1 135.6L188.7 135.6L188.7 140.2Q188.7 140.6 188.9 140.8Q189.0 141.0 189.5 141.0L189.5 141.0Q189.7 141.0 190.1 141.0L190.1 141.0L190.1 142.0Q189.6 142.1 189.1 142.1L189.1 142.1Q188.3 142.1 187.8 141.6Q187.4 141.1 187.4 140.2L187.4 140.2L187.4 135.6L186.1 135.6L186.1 134.6L187.4 134.6L187.4 132.8ZM192.1 134.6L194.0 140.1L195.7 134.6L197.0 134.6L194.1 143.1Q193.4 145.0 191.9 145.0L191.9 145.0L191.6 145.0L191.1 144.9L191.1 143.8L191.5 143.9Q192.1 143.9 192.5 143.6Q192.8 143.3 193.1 142.7L193.1 142.7L193.4 141.9L190.7 134.6L192.1 134.6ZM204.4 138.3L204.4 138.4Q204.4 140.1 203.6 141.1Q202.9 142.1 201.5 142.1L201.5 142.1Q200.2 142.1 199.4 141.3L199.4 141.3L199.4 144.8L198.2 144.8L198.2 134.6L199.3 134.6L199.4 135.4Q200.1 134.5 201.5 134.5L201.5 134.5Q202.9 134.5 203.6 135.5Q204.4 136.5 204.4 138.3L204.4 138.3ZM203.1 138.2L203.1 138.2Q203.1 137.0 202.6 136.3Q202.1 135.5 201.1 135.5L201.1 135.5Q200.0 135.5 199.4 136.5L199.4 136.5L199.4 140.1Q200.0 141.1 201.2 141.1L201.2 141.1Q202.1 141.1 202.6 140.4Q203.1 139.7 203.1 138.2ZM209.1 142.1L209.1 142.1Q207.6 142.1 206.6 141.1Q205.7 140.1 205.7 138.5L205.7 138.5L205.7 138.3Q205.7 137.2 206.1 136.3Q206.5 135.4 207.3 134.9Q208.0 134.5 208.9 134.5L208.9 134.5Q210.4 134.5 211.2 135.4Q212.0 136.4 212.0 138.1L212.0 138.1L212.0 138.7L207.0 138.7Q207.0 139.7 207.6 140.4Q208.2 141.1 209.1 141.1L209.1 141.1Q209.8 141.1 210.3 140.8Q210.7 140.5 211.1 140.1L211.1 140.1L211.9 140.7Q210.9 142.1 209.1 142.1ZM208.9 135.5L208.9 135.5Q208.2 135.5 207.6 136.1Q207.1 136.6 207.0 137.6L207.0 137.6L210.7 137.6L210.7 137.5Q210.6 136.6 210.2 136.0Q209.7 135.5 208.9 135.5ZM217.7 140.0L217.7 140.0Q217.7 139.5 217.3 139.2Q217.0 138.9 216.0 138.7Q215.0 138.5 214.5 138.2Q213.9 138.0 213.6 137.6Q213.4 137.2 213.4 136.6L213.4 136.6Q213.4 135.7 214.1 135.1Q214.9 134.5 216.1 134.5L216.1 134.5Q217.4 134.5 218.1 135.1Q218.9 135.8 218.9 136.8L218.9 136.8L217.7 136.8Q217.7 136.2 217.2 135.9Q216.8 135.5 216.1 135.5L216.1 135.5Q215.4 135.5 215.0 135.8Q214.6 136.1 214.6 136.6L214.6 136.6Q214.6 137.0 215.0 137.3Q215.4 137.5 216.3 137.7Q217.3 137.9 217.8 138.2Q218.4 138.5 218.7 138.9Q219.0 139.3 219.0 139.9L219.0 139.9Q219.0 140.9 218.2 141.5Q217.4 142.1 216.1 142.1L216.1 142.1Q215.3 142.1 214.6 141.8Q213.9 141.5 213.5 140.9Q213.1 140.4 213.1 139.7L213.1 139.7L214.4 139.7Q214.4 140.3 214.9 140.7Q215.4 141.1 216.1 141.1L216.1 141.1Q216.9 141.1 217.3 140.8Q217.7 140.5 217.7 140.0ZM223.6 141.1L223.6 141.1Q224.3 141.1 224.8 140.7Q225.3 140.3 225.4 139.7L225.4 139.7L226.6 139.7Q226.5 140.3 226.1 140.9Q225.7 141.4 225.0 141.8Q224.4 142.1 223.6 142.1L223.6 142.1Q222.1 142.1 221.2 141.1Q220.3 140.1 220.3 138.4L220.3 138.4L220.3 138.1Q220.3 137.1 220.7 136.2Q221.1 135.4 221.9 134.9Q222.6 134.5 223.6 134.5L223.6 134.5Q224.8 134.5 225.7 135.2Q226.5 135.9 226.6 137.1L226.6 137.1L225.4 137.1Q225.3 136.4 224.8 136.0Q224.3 135.5 223.6 135.5L223.6 135.5Q222.6 135.5 222.1 136.2Q221.6 136.9 221.6 138.2L221.6 138.2L221.6 138.4Q221.6 139.7 222.1 140.4Q222.6 141.1 223.6 141.1ZM231.5 134.6L231.5 135.7Q231.3 135.7 230.9 135.7L230.9 135.7Q229.7 135.7 229.2 136.7L229.2 136.7L229.2 142.0L228.0 142.0L228.0 134.6L229.2 134.6L229.2 135.4Q229.8 134.5 231.0 134.5L231.0 134.5Q231.4 134.5 231.5 134.6L231.5 134.6ZM234.1 134.6L234.1 142.0L232.8 142.0L232.8 134.6L234.1 134.6ZM232.7 132.6L232.7 132.6Q232.7 132.3 232.9 132.1Q233.1 131.9 233.5 131.9Q233.8 131.9 234.0 132.1Q234.2 132.3 234.2 132.6Q234.2 132.9 234.0 133.1Q233.8 133.3 233.5 133.3Q233.1 133.3 232.9 133.1Q232.7 132.9 232.7 132.6ZM242.4 138.3L242.4 138.4Q242.4 140.1 241.6 141.1Q240.8 142.1 239.5 142.1L239.5 142.1Q238.1 142.1 237.4 141.3L237.4 141.3L237.4 144.8L236.1 144.8L236.1 134.6L237.3 134.6L237.3 135.4Q238.1 134.5 239.5 134.5L239.5 134.5Q240.8 134.5 241.6 135.5Q242.4 136.5 242.4 138.3L242.4 138.3ZM241.1 138.2L241.1 138.2Q241.1 137.0 240.6 136.3Q240.0 135.5 239.1 135.5L239.1 135.5Q237.9 135.5 237.4 136.5L237.4 136.5L237.4 140.1Q237.9 141.1 239.1 141.1L239.1 141.1Q240.0 141.1 240.6 140.4Q241.1 139.7 241.1 138.2ZM244.4 132.8L245.7 132.8L245.7 134.6L247.1 134.6L247.1 135.6L245.7 135.6L245.7 140.2Q245.7 140.6 245.9 140.8Q246.0 141.0 246.5 141.0L246.5 141.0Q246.7 141.0 247.1 141.0L247.1 141.0L247.1 142.0Q246.6 142.1 246.1 142.1L246.1 142.1Q245.3 142.1 244.8 141.6Q244.4 141.1 244.4 140.2L244.4 140.2L244.4 135.6L243.1 135.6L243.1 134.6L244.4 134.6L244.4 132.8Z "/><defs><clipPath id="satori_bc-id-1-2"><path x="275" y="114" width="104" height="46" d="M283,114 h88 a8,8 0 0 1 8,8 v30 a8,8 0 0 1 -8,8 h-88 a8,8 0 0 1 -8,-8 v-30 a8,8 0 0 1 8,-8"/></clipPath></defs><mask id="satori_om-id-1-2"><rect x="276" y="115" width="102" height="44" fill="#fff"/><path width="104" height="46" fill="none" stroke="#000" stroke-width="2" d="M277.343,116.343 A8,8 0 0 1 283,114 h88 a8,8 0 0 1 8,8 v30 a8,8 0 0 1 -8,8 h-88 a8,8 0 0 1 -8,-8 v-30 A8,8 0 0 1 277.343,116.343"/></mask><path x="275" y="114" width="104" height="46" fill="rgba(NaN, NaN, 51, 0.1)" d="M283,114 h88 a8,8 0 0 1 8,8 v30 a8,8 0 0 1 -8,8 h-88 a8,8 0 0 1 -8,-8 v-30 a8,8 0 0 1 8,-8"/><path width="104" height="46" clip-path="url(#satori_bc-id-1-2)" fill="none" stroke="rgba(NaN, NaN, 51, 0.3)" stroke-width="2" d="M277.343,116.343 A8,8 0 0 1 283,114 h88 a8,8 0 0 1 8,8 v30 a8,8 0 0 1 -8,8 h-88 a8,8 0 0 1 -8,-8 v-30 A8,8 0 0 1 277.343,116.343"/><mask id="satori_om-id-1-2-0"><rect x="290" y="125" width="24" height="24" fill="#fff"/></mask><path x="290" y="125" width="24" height="24" fill="hsl(333, 70%, 55%)" d="M294,125 h16 a4,4 0 0 1 4,4 v16 a4,4 0 0 1 -4,4 h-16 a4,4 0 0 1 -4,-4 v-16 a4,4 0 0 1 4,-4"/><path fill="#ffffff" d="M299.0 133.6L300.2 133.6L300.2 134.5Q301.0 133.5 302.4 133.5L302.4 133.5Q304.8 133.5 304.8 136.1L304.8 136.1L304.8 141.0L303.5 141.0L303.5 136.1Q303.5 135.3 303.1 134.9Q302.8 134.5 302.0 134.5L302.0 134.5Q301.4 134.5 300.9 134.9Q300.5 135.2 300.2 135.7L300.2 135.7L300.2 141.0L299.0 141.0L299.0 133.6Z "/><mask id="satori_om-id-1-2-1"><rect x="322" y="129" width="42" height="16" fill="#fff"/></mask><path fill="#f1f5f9" d="M323.0 134.6L324.2 134.6L324.2 135.5Q325.0 134.5 326.4 134.5L326.4 134.5Q328.8 134.5 328.8 137.1L328.8 137.1L328.8 142.0L327.5 142.0L327.5 137.1Q327.5 136.3 327.1 135.9Q326.8 135.5 326.0 135.5L326.0 135.5Q325.4 135.5 324.9 135.9Q324.5 136.2 324.2 136.7L324.2 136.7L324.2 142.0L323.0 142.0L323.0 134.6ZM330.3 138.3L330.3 138.2Q330.3 137.1 330.8 136.3Q331.2 135.4 332.0 134.9Q332.7 134.5 333.7 134.5L333.7 134.5Q335.2 134.5 336.1 135.5Q337.1 136.5 337.1 138.3L337.1 138.3L337.1 138.4Q337.1 139.5 336.7 140.3Q336.3 141.2 335.5 141.6Q334.7 142.1 333.7 142.1L333.7 142.1Q332.2 142.1 331.3 141.1Q330.3 140.0 330.3 138.3L330.3 138.3ZM331.6 138.4L331.6 138.4Q331.6 139.6 332.2 140.3Q332.8 141.1 333.7 141.1L333.7 141.1Q334.7 141.1 335.2 140.3Q335.8 139.6 335.8 138.2L335.8 138.2Q335.8 137.0 335.2 136.2Q334.7 135.5 333.7 135.5L333.7 135.5Q332.8 135.5 332.2 136.2Q331.6 137.0 331.6 138.4ZM338.4 138.3L338.4 138.2Q338.4 136.5 339.2 135.5Q340.0 134.5 341.3 134.5L341.3 134.5Q342.6 134.5 343.3 135.3L343.3 135.3L343.3 131.5L344.6 131.5L344.6 142.0L343.4 142.0L343.4 141.2Q342.6 142.1 341.3 142.1L341.3 142.1Q340.0 142.1 339.2 141.1Q338.4 140.0 338.4 138.3L338.4 138.3ZM339.6 138.4L339.6 138.4Q339.6 139.6 340.1 140.3Q340.7 141.1 341.6 141.1L341.6 141.1Q342.8 141.1 343.3 140.0L343.3 140.0L343.3 136.6Q342.8 135.5 341.6 135.5L341.6 135.5Q340.7 135.5 340.1 136.2Q339.6 137.0 339.6 138.4ZM349.6 142.1L349.6 142.1Q348.1 142.1 347.2 141.1Q346.2 140.1 346.2 138.5L346.2 138.5L346.2 138.3Q346.2 137.2 346.7 136.3Q347.1 135.4 347.8 134.9Q348.6 134.5 349.5 134.5L349.5 134.5Q350.9 134.5 351.7 135.4Q352.5 136.4 352.5 138.1L352.5 138.1L352.5 138.7L347.5 138.7Q347.5 139.7 348.1 140.4Q348.8 141.1 349.7 141.1L349.7 141.1Q350.4 141.1 350.8 140.8Q351.3 140.5 351.6 140.1L351.6 140.1L352.4 140.7Q351.5 142.1 349.6 142.1ZM349.5 135.5L349.5 135.5Q348.7 135.5 348.2 136.1Q347.7 136.6 347.5 137.6L347.5 137.6L351.3 137.6L351.3 137.5Q351.2 136.6 350.7 136.0Q350.3 135.5 349.5 135.5ZM354.0 134.6L355.3 134.6L355.3 142.8Q355.3 145.0 353.3 145.0L353.3 145.0Q352.9 145.0 352.6 144.9L352.6 144.9L352.6 143.8Q352.8 143.9 353.2 143.9L353.2 143.9Q353.6 143.9 353.8 143.7Q354.0 143.4 354.0 142.9L354.0 142.9L354.0 134.6ZM353.9 132.6L353.9 132.6Q353.9 132.3 354.1 132.1Q354.3 131.9 354.6 131.9L354.6 131.9Q355.0 131.9 355.2 132.1Q355.4 132.3 355.4 132.6Q355.4 132.9 355.2 133.1Q355.0 133.3 354.6 133.3Q354.3 133.3 354.1 133.1Q353.9 132.9 353.9 132.6ZM361.6 140.0L361.6 140.0Q361.6 139.5 361.2 139.2Q360.9 138.9 359.9 138.7Q358.9 138.5 358.4 138.2Q357.8 138.0 357.5 137.6Q357.3 137.2 357.3 136.6L357.3 136.6Q357.3 135.7 358.0 135.1Q358.8 134.5 360.0 134.5L360.0 134.5Q361.3 134.5 362.0 135.1Q362.8 135.8 362.8 136.8L362.8 136.8L361.6 136.8Q361.6 136.2 361.1 135.9Q360.7 135.5 360.0 135.5L360.0 135.5Q359.3 135.5 358.9 135.8Q358.5 136.1 358.5 136.6L358.5 136.6Q358.5 137.0 358.9 137.3Q359.3 137.5 360.2 137.7Q361.1 137.9 361.7 138.2Q362.3 138.5 362.6 138.9Q362.9 139.3 362.9 139.9L362.9 139.9Q362.9 140.9 362.1 141.5Q361.3 142.1 360.0 142.1L360.0 142.1Q359.2 142.1 358.5 141.8Q357.8 141.5 357.4 140.9Q357.0 140.4 357.0 139.7L357.0 139.7L358.3 139.7Q358.3 140.3 358.8 140.7Q359.3 141.1 360.0 141.1L360.0 141.1Q360.8 141.1 361.2 140.8Q361.6 140.5 361.6 140.0Z "/><defs><clipPath id="satori_bc-id-1-3"><path x="391" y="114" width="105" height="46" d="M399,114 h89 a8,8 0 0 1 8,8 v30 a8,8 0 0 1 -8,8 h-89 a8,8 0 0 1 -8,-8 v-30 a8,8 0 0 1 8,-8"/></clipPath></defs><mask id="satori_om-id-1-3"><rect x="392" y="115" width="103" height="44" fill="#fff"/><path width="105" height="46" fill="none" stroke="#000" stroke-width="2" d="M393.343,116.343 A8,8 0 0 1 399,114 h89 a8,8 0 0 1 8,8 v30 a8,8 0 0 1 -8,8 h-89 a8,8 0 0 1 -8,-8 v-30 A8,8 0 0 1 393.343,116.343"/></mask><path x="391" y="114" width="105" height="46" fill="rgba(NaN, NaN, 2, 0.1)" d="M399,114 h89 a8,8 0 0 1 8,8 v30 a8,8 0 0 1 -8,8 h-89 a8,8 0 0 1 -8,-8 v-30 a8,8 0 0 1 8,-8"/><path width="105" height="46" clip-path="url(#satori_bc-id-1-3)" fill="none" stroke="rgba(NaN, NaN, 2, 0.3)" stroke-width="2" d="M393.343,116.343 A8,8 0 0 1 399,114 h89 a8,8 0 0 1 8,8 v30 a8,8 0 0 1 -8,8 h-89 a8,8 0 0 1 -8,-8 v-30 A8,8 0 0 1 393.343,116.343"/><mask id="satori_om-id-1-3-0"><rect x="406" y="125" width="24" height="24" fill="#fff"/></mask><path x="406" y="125" width="24" height="24" fill="hsl(92, 70%, 55%)" d="M410,125 h16 a4,4 0 0 1 4,4 v16 a4,4 0 0 1 -4,4 h-16 a4,4 0 0 1 -4,-4 v-16 a4,4 0 0 1 4,-4"/><path fill="#ffffff" d="M421.2 137.3L421.2 137.4Q421.2 139.1 420.4 140.1Q419.7 141.1 418.3 141.1L418.3 141.1Q417.0 141.1 416.2 140.3L416.2 140.3L416.2 143.8L415.0 143.8L415.0 133.6L416.1 133.6L416.2 134.4Q416.9 133.5 418.3 133.5L418.3 133.5Q419.7 133.5 420.4 134.5Q421.2 135.5 421.2 137.3L421.2 137.3ZM419.9 137.2L419.9 137.2Q419.9 136.0 419.4 135.3Q418.9 134.5 417.9 134.5L417.9 134.5Q416.8 134.5 416.2 135.5L416.2 135.5L416.2 139.1Q416.8 140.1 418.0 140.1L418.0 140.1Q418.9 140.1 419.4 139.4Q419.9 138.7 419.9 137.2Z "/><mask id="satori_om-id-1-3-1"><rect x="438" y="129" width="43" height="16" fill="#fff"/></mask><path fill="#f1f5f9" d="M445.2 138.3L445.2 138.4Q445.2 140.1 444.4 141.1Q443.7 142.1 442.3 142.1L442.3 142.1Q441.0 142.1 440.2 141.3L440.2 141.3L440.2 144.8L439.0 144.8L439.0 134.6L440.1 134.6L440.2 135.4Q440.9 134.5 442.3 134.5L442.3 134.5Q443.7 134.5 444.4 135.5Q445.2 136.5 445.2 138.3L445.2 138.3ZM443.9 138.2L443.9 138.2Q443.9 137.0 443.4 136.3Q442.9 135.5 441.9 135.5L441.9 135.5Q440.8 135.5 440.2 136.5L440.2 136.5L440.2 140.1Q440.8 141.1 442.0 141.1L442.0 141.1Q442.9 141.1 443.4 140.4Q443.9 139.7 443.9 138.2ZM447.3 134.6L449.2 140.1L450.9 134.6L452.2 134.6L449.3 143.1Q448.6 145.0 447.1 145.0L447.1 145.0L446.8 145.0L446.4 144.9L446.4 143.8L446.7 143.9Q447.3 143.9 447.7 143.6Q448.1 143.3 448.3 142.7L448.3 142.7L448.6 141.9L445.9 134.6L447.3 134.6ZM453.8 132.8L455.1 132.8L455.1 134.6L456.5 134.6L456.5 135.6L455.1 135.6L455.1 140.2Q455.1 140.6 455.3 140.8Q455.4 141.0 455.9 141.0L455.9 141.0Q456.1 141.0 456.5 141.0L456.5 141.0L456.5 142.0Q456.0 142.1 455.5 142.1L455.5 142.1Q454.7 142.1 454.2 141.6Q453.8 141.1 453.8 140.2L453.8 140.2L453.8 135.6L452.5 135.6L452.5 134.6L453.8 134.6L453.8 132.8ZM459.2 131.5L459.2 135.5Q460.0 134.5 461.4 134.5L461.4 134.5Q463.7 134.5 463.8 137.1L463.8 137.1L463.8 142.0L462.5 142.0L462.5 137.1Q462.5 136.3 462.1 135.9Q461.8 135.5 461.0 135.5L461.0 135.5Q460.4 135.5 459.9 135.9Q459.5 136.2 459.2 136.7L459.2 136.7L459.2 142.0L457.9 142.0L457.9 131.5L459.2 131.5ZM465.3 138.3L465.3 138.2Q465.3 137.1 465.7 136.3Q466.2 135.4 466.9 134.9Q467.7 134.5 468.7 134.5L468.7 134.5Q470.2 134.5 471.1 135.5Q472.0 136.5 472.0 138.3L472.0 138.3L472.0 138.4Q472.0 139.5 471.6 140.3Q471.2 141.2 470.4 141.6Q469.7 142.1 468.7 142.1L468.7 142.1Q467.2 142.1 466.2 141.1Q465.3 140.0 465.3 138.3L465.3 138.3ZM466.6 138.4L466.6 138.4Q466.6 139.6 467.2 140.3Q467.7 141.1 468.7 141.1L468.7 141.1Q469.6 141.1 470.2 140.3Q470.8 139.6 470.8 138.2L470.8 138.2Q470.8 137.0 470.2 136.2Q469.6 135.5 468.7 135.5L468.7 135.5Q467.7 135.5 467.2 136.2Q466.6 137.0 466.6 138.4ZM473.6 134.6L474.8 134.6L474.9 135.5Q475.7 134.5 477.1 134.5L477.1 134.5Q479.4 134.5 479.4 137.1L479.4 137.1L479.4 142.0L478.2 142.0L478.2 137.1Q478.2 136.3 477.8 135.9Q477.5 135.5 476.7 135.5L476.7 135.5Q476.1 135.5 475.6 135.9Q475.2 136.2 474.9 136.7L474.9 136.7L474.9 142.0L473.6 142.0L473.6 134.6Z "/><defs><clipPath id="satori_bc-id-1-4"><path x="508" y="114" width="123" height="46" d="M516,114 h107 a8,8 0 0 1 8,8 v30 a8,8 0 0 1 -8,8 h-107 a8,8 0 0 1 -8,-8 v-30 a8,8 0 0 1 8,-8"/></clipPath></defs><mask id="satori_om-id-1-4"><rect x="509" y="115" width="121" height="44" fill="#fff"/><path width="123" height="46" fill="none" stroke="#000" stroke-width="2" d="M510.343,116.343 A8,8 0 0 1 516,114 h107 a8,8 0 0 1 8,8 v30 a8,8 0 0 1 -8,8 h-107 a8,8 0 0 1 -8,-8 v-30 A8,8 0 0 1 510.343,116.343"/></mask><path x="508" y="114" width="123" height="46" fill="rgba(NaN, NaN, 105, 0.1)" d="M516,114 h107 a8,8 0 0 1 8,8 v30 a8,8 0 0 1 -8,8 h-107 a8,8 0 0 1 -8,-8 v-30 a8,8 0 0 1 8,-8"/><path width="123" height="46" clip-path="url(#satori_bc-id-1-4)" fill="none" stroke="rgba(NaN, NaN, 105, 0.3)" stroke-width="2" d="M510.343,116.343 A8,8 0 0 1 516,114 h107 a8,8 0 0 1 8,8 v30 a8,8 0 0 1 -8,8 h-107 a8,8 0 0 1 -8,-8 v-30 A8,8 0 0 1 510.343,116.343"/><mask id="satori_om-id-1-4-0"><rect x="523" y="125" width="24" height="24" fill="#fff"/></mask><path x="523" y="125" width="24" height="24" fill="hsl(269, 70%, 55%)" d="M527,125 h16 a4,4 0 0 1 4,4 v16 a4,4 0 0 1 -4,4 h-16 a4,4 0 0 1 -4,-4 v-16 a4,4 0 0 1 4,-4"/><path fill="#ffffff" d="M534.0 133.6L535.3 133.6L535.3 141.8Q535.3 144.0 533.3 144.0L533.3 144.0Q532.9 144.0 532.6 143.9L532.6 143.9L532.6 142.8Q532.8 142.9 533.1 142.9L533.1 142.9Q533.6 142.9 533.8 142.7Q534.0 142.4 534.0 141.9L534.0 141.9L534.0 133.6ZM533.9 131.6L533.9 131.6Q533.9 131.3 534.1 131.1Q534.2 130.9 534.6 130.9L534.6 130.9Q535.0 130.9 535.2 131.1Q535.4 131.3 535.4 131.6Q535.4 131.9 535.2 132.1Q535.0 132.3 534.6 132.3Q534.2 132.3 534.1 132.1Q533.9 131.9 533.9 131.6Z "/><mask id="satori_om-id-1-4-1"><rect x="555" y="129" width="61" height="16" fill="#fff"/></mask><path fill="#f1f5f9" d="M556.0 134.6L557.3 134.6L557.3 142.8Q557.3 145.0 555.3 145.0L555.3 145.0Q554.9 145.0 554.6 144.9L554.6 144.9L554.6 143.8Q554.8 143.9 555.1 143.9L555.1 143.9Q555.6 143.9 555.8 143.7Q556.0 143.4 556.0 142.9L556.0 142.9L556.0 134.6ZM555.9 132.6L555.9 132.6Q555.9 132.3 556.1 132.1Q556.2 131.9 556.6 131.9L556.6 131.9Q557.0 131.9 557.2 132.1Q557.4 132.3 557.4 132.6Q557.4 132.9 557.2 133.1Q557.0 133.3 556.6 133.3Q556.2 133.3 556.1 133.1Q555.9 132.9 555.9 132.6ZM565.2 142.0L563.9 142.0Q563.8 141.8 563.7 141.2L563.7 141.2Q562.8 142.1 561.6 142.1L561.6 142.1Q560.5 142.1 559.8 141.5Q559.1 140.9 559.1 139.9L559.1 139.9Q559.1 138.8 560.0 138.1Q560.8 137.5 562.4 137.5L562.4 137.5L563.7 137.5L563.7 136.9Q563.7 136.3 563.3 135.9Q562.9 135.5 562.1 135.5L562.1 135.5Q561.4 135.5 561.0 135.8Q560.5 136.2 560.5 136.6L560.5 136.6L559.2 136.6Q559.2 136.1 559.6 135.6Q560.0 135.1 560.7 134.8Q561.4 134.5 562.2 134.5L562.2 134.5Q563.5 134.5 564.2 135.1Q564.9 135.7 564.9 136.9L564.9 136.9L564.9 140.3Q564.9 141.3 565.2 141.9L565.2 141.9L565.2 142.0ZM561.8 141.0L561.8 141.0Q562.4 141.0 562.9 140.7Q563.4 140.4 563.7 139.9L563.7 139.9L563.7 138.4L562.7 138.4Q560.4 138.4 560.4 139.8L560.4 139.8Q560.4 140.4 560.7 140.7Q561.1 141.0 561.8 141.0ZM567.4 134.6L569.3 140.3L571.1 134.6L572.4 134.6L569.7 142.0L568.8 142.0L566.1 134.6L567.4 134.6ZM579.4 142.0L578.1 142.0Q577.9 141.8 577.9 141.2L577.9 141.2Q577.0 142.1 575.8 142.1L575.8 142.1Q574.7 142.1 574.0 141.5Q573.3 140.9 573.3 139.9L573.3 139.9Q573.3 138.8 574.2 138.1Q575.0 137.5 576.6 137.5L576.6 137.5L577.9 137.5L577.9 136.9Q577.9 136.3 577.5 135.9Q577.1 135.5 576.3 135.5L576.3 135.5Q575.6 135.5 575.2 135.8Q574.7 136.2 574.7 136.6L574.7 136.6L573.4 136.6Q573.4 136.1 573.8 135.6Q574.2 135.1 574.9 134.8Q575.6 134.5 576.4 134.5L576.4 134.5Q577.6 134.5 578.4 135.1Q579.1 135.7 579.1 136.9L579.1 136.9L579.1 140.3Q579.1 141.3 579.4 141.9L579.4 141.9L579.4 142.0ZM576.0 141.0L576.0 141.0Q576.6 141.0 577.1 140.7Q577.6 140.4 577.9 139.9L577.9 139.9L577.9 138.4L576.9 138.4Q574.5 138.4 574.5 139.8L574.5 139.8Q574.5 140.4 574.9 140.7Q575.3 141.0 576.0 141.0ZM585.4 140.0L585.4 140.0Q585.4 139.5 585.0 139.2Q584.6 138.9 583.7 138.7Q582.7 138.5 582.2 138.2Q581.6 138.0 581.3 137.6Q581.1 137.2 581.1 136.6L581.1 136.6Q581.1 135.7 581.8 135.1Q582.6 134.5 583.8 134.5L583.8 134.5Q585.0 134.5 585.8 135.1Q586.6 135.8 586.6 136.8L586.6 136.8L585.3 136.8Q585.3 136.2 584.9 135.9Q584.5 135.5 583.8 135.5L583.8 135.5Q583.1 135.5 582.7 135.8Q582.3 136.1 582.3 136.6L582.3 136.6Q582.3 137.0 582.7 137.3Q583.0 137.5 584.0 137.7Q584.9 137.9 585.5 138.2Q586.1 138.5 586.4 138.9Q586.7 139.3 586.7 139.9L586.7 139.9Q586.7 140.9 585.9 141.5Q585.1 142.1 583.8 142.1L583.8 142.1Q582.9 142.1 582.3 141.8Q581.6 141.5 581.2 140.9Q580.8 140.4 580.8 139.7L580.8 139.7L582.1 139.7Q582.1 140.3 582.6 140.7Q583.0 141.1 583.8 141.1L583.8 141.1Q584.5 141.1 585.0 140.8Q585.4 140.5 585.4 140.0ZM591.3 141.1L591.3 141.1Q592.0 141.1 592.5 140.7Q593.0 140.3 593.0 139.7L593.0 139.7L594.2 139.7Q594.2 140.3 593.8 140.9Q593.4 141.4 592.7 141.8Q592.0 142.1 591.3 142.1L591.3 142.1Q589.8 142.1 588.9 141.1Q588.0 140.1 588.0 138.4L588.0 138.4L588.0 138.1Q588.0 137.1 588.4 136.2Q588.8 135.4 589.5 134.9Q590.3 134.5 591.3 134.5L591.3 134.5Q592.5 134.5 593.4 135.2Q594.2 135.9 594.2 137.1L594.2 137.1L593.0 137.1Q593.0 136.4 592.5 136.0Q592.0 135.5 591.3 135.5L591.3 135.5Q590.3 135.5 589.8 136.2Q589.3 136.9 589.3 138.2L589.3 138.2L589.3 138.4Q589.3 139.7 589.8 140.4Q590.3 141.1 591.3 141.1ZM599.2 134.6L599.2 135.7Q598.9 135.7 598.6 135.7L598.6 135.7Q597.4 135.7 596.9 136.7L596.9 136.7L596.9 142.0L595.7 142.0L595.7 134.6L596.9 134.6L596.9 135.4Q597.5 134.5 598.7 134.5L598.7 134.5Q599.0 134.5 599.2 134.6L599.2 134.6ZM601.8 134.6L601.8 142.0L600.5 142.0L600.5 134.6L601.8 134.6ZM600.4 132.6L600.4 132.6Q600.4 132.3 600.6 132.1Q600.8 131.9 601.1 131.9Q601.5 131.9 601.7 132.1Q601.9 132.3 601.9 132.6Q601.9 132.9 601.7 133.1Q601.5 133.3 601.1 133.3Q600.8 133.3 600.6 133.1Q600.4 132.9 600.4 132.6ZM610.0 138.3L610.0 138.4Q610.0 140.1 609.3 141.1Q608.5 142.1 607.2 142.1L607.2 142.1Q605.8 142.1 605.1 141.3L605.1 141.3L605.1 144.8L603.8 144.8L603.8 134.6L604.9 134.6L605.0 135.4Q605.8 134.5 607.2 134.5L607.2 134.5Q608.5 134.5 609.3 135.5Q610.0 136.5 610.0 138.3L610.0 138.3ZM608.8 138.2L608.8 138.2Q608.8 137.0 608.2 136.3Q607.7 135.5 606.8 135.5L606.8 135.5Q605.6 135.5 605.1 136.5L605.1 136.5L605.1 140.1Q605.6 141.1 606.8 141.1L606.8 141.1Q607.7 141.1 608.2 140.4Q608.8 139.7 608.8 138.2ZM612.1 132.8L613.4 132.8L613.4 134.6L614.7 134.6L614.7 135.6L613.4 135.6L613.4 140.2Q613.4 140.6 613.5 140.8Q613.7 141.0 614.2 141.0L614.2 141.0Q614.4 141.0 614.8 141.0L614.8 141.0L614.8 142.0Q614.3 142.1 613.8 142.1L613.8 142.1Q613.0 142.1 612.5 141.6Q612.1 141.1 612.1 140.2L612.1 140.2L612.1 135.6L610.7 135.6L610.7 134.6L612.1 134.6L612.1 132.8Z "/><defs><clipPath id="satori_bc-id-1-5"><path x="643" y="114" width="90" height="46" d="M651,114 h74 a8,8 0 0 1 8,8 v30 a8,8 0 0 1 -8,8 h-74 a8,8 0 0 1 -8,-8 v-30 a8,8 0 0 1 8,-8"/></clipPath></defs><mask id="satori_om-id-1-5"><rect x="644" y="115" width="88" height="44" fill="#fff"/><path width="90" height="46" fill="none" stroke="#000" stroke-width="2" d="M645.343,116.343 A8,8 0 0 1 651,114 h74 a8,8 0 0 1 8,8 v30 a8,8 0 0 1 -8,8 h-74 a8,8 0 0 1 -8,-8 v-30 A8,8 0 0 1 645.343,116.343"/></mask><path x="643" y="114" width="90" height="46" fill="rgba(NaN, NaN, 39, 0.1)" d="M651,114 h74 a8,8 0 0 1 8,8 v30 a8,8 0 0 1 -8,8 h-74 a8,8 0 0 1 -8,-8 v-30 a8,8 0 0 1 8,-8"/><path width="90" height="46" clip-path="url(#satori_bc-id-1-5)" fill="none" stroke="rgba(NaN, NaN, 39, 0.3)" stroke-width="2" d="M645.343,116.343 A8,8 0 0 1 651,114 h74 a8,8 0 0 1 8,8 v30 a8,8 0 0 1 -8,8 h-74 a8,8 0 0 1 -8,-8 v-30 A8,8 0 0 1 645.343,116.343"/><mask id="satori_om-id-1-5-0"><rect x="658" y="125" width="24" height="24" fill="#fff"/></mask><path x="658" y="125" width="24" height="24" fill="hsl(227, 70%, 55%)" d="M662,125 h16 a4,4 0 0 1 4,4 v16 a4,4 0 0 1 -4,4 h-16 a4,4 0 0 1 -4,-4 v-16 a4,4 0 0 1 4,-4"/><path fill="#ffffff" d="M668.2 130.5L668.2 134.5Q669.1 133.5 670.4 133.5L670.4 133.5Q672.8 133.5 672.8 136.1L672.8 136.1L672.8 141.0L671.5 141.0L671.5 136.1Q671.5 135.3 671.1 134.9Q670.8 134.5 670.0 134.5L670.0 134.5Q669.4 134.5 668.9 134.9Q668.5 135.2 668.2 135.7L668.2 135.7L668.2 141.0L667.0 141.0L667.0 130.5L668.2 130.5Z "/><mask id="satori_om-id-1-5-1"><rect x="690" y="129" width="28" height="16" fill="#fff"/></mask><path fill="#f1f5f9" d="M692.2 131.5L692.2 135.5Q693.1 134.5 694.4 134.5L694.4 134.5Q696.8 134.5 696.8 137.1L696.8 137.1L696.8 142.0L695.5 142.0L695.5 137.1Q695.5 136.3 695.1 135.9Q694.8 135.5 694.0 135.5L694.0 135.5Q693.4 135.5 692.9 135.9Q692.5 136.2 692.2 136.7L692.2 136.7L692.2 142.0L691.0 142.0L691.0 131.5L692.2 131.5ZM699.1 132.8L700.4 132.8L700.4 134.6L701.8 134.6L701.8 135.6L700.4 135.6L700.4 140.2Q700.4 140.6 700.6 140.8Q700.8 141.0 701.2 141.0L701.2 141.0Q701.4 141.0 701.8 141.0L701.8 141.0L701.8 142.0Q701.3 142.1 700.8 142.1L700.8 142.1Q700.0 142.1 699.5 141.6Q699.1 141.1 699.1 140.2L699.1 140.2L699.1 135.6L697.8 135.6L697.8 134.6L699.1 134.6L699.1 132.8ZM703.2 134.6L704.4 134.6L704.5 135.4Q705.3 134.5 706.7 134.5L706.7 134.5Q708.2 134.5 708.8 135.6L708.8 135.6Q709.1 135.1 709.7 134.8Q710.3 134.5 711.1 134.5L711.1 134.5Q713.6 134.5 713.6 137.0L713.6 137.0L713.6 142.0L712.3 142.0L712.3 137.1Q712.3 136.3 712.0 135.9Q711.6 135.5 710.8 135.5L710.8 135.5Q710.1 135.5 709.6 135.9Q709.1 136.4 709.1 137.1L709.1 137.1L709.1 142.0L707.8 142.0L707.8 137.1Q707.8 135.5 706.2 135.5L706.2 135.5Q705.0 135.5 704.5 136.6L704.5 136.6L704.5 142.0L703.2 142.0L703.2 134.6ZM716.9 131.5L716.9 142.0L715.6 142.0L715.6 131.5L716.9 131.5Z "/><defs><clipPath id="satori_bc-id-1-6"><path x="33" y="172" width="84" height="46" d="M41,172 h68 a8,8 0 0 1 8,8 v30 a8,8 0 0 1 -8,8 h-68 a8,8 0 0 1 -8,-8 v-30 a8,8 0 0 1 8,-8"/></clipPath></defs><mask id="satori_om-id-1-6"><rect x="34" y="173" width="82" height="44" fill="#fff"/><path width="84" height="46" fill="none" stroke="#000" stroke-width="2" d="M35.343,174.343 A8,8 0 0 1 41,172 h68 a8,8 0 0 1 8,8 v30 a8,8 0 0 1 -8,8 h-68 a8,8 0 0 1 -8,-8 v-30 A8,8 0 0 1 35.343,174.343"/></mask><path x="33" y="172" width="84" height="46" fill="rgba(NaN, NaN, 121, 0.1)" d="M41,172 h68 a8,8 0 0 1 8,8 v30 a8,8 0 0 1 -8,8 h-68 a8,8 0 0 1 -8,-8 v-30 a8,8 0 0 1 8,-8"/><path width="84" height="46" clip-path="url(#satori_bc-id-1-6)" fill="none" stroke="rgba(NaN, NaN, 121, 0.3)" stroke-width="2" d="M35.343,174.343 A8,8 0 0 1 41,172 h68 a8,8 0 0 1 8,8 v30 a8,8 0 0 1 -8,8 h-68 a8,8 0 0 1 -8,-8 v-30 A8,8 0 0 1 35.343,174.343"/><mask id="satori_om-id-1-6-0"><rect x="48" y="183" width="24" height="24" fill="#fff"/></mask><path x="48" y="183" width="24" height="24" fill="hsl(179, 70%, 55%)" d="M52,183 h16 a4,4 0 0 1 4,4 v16 a4,4 0 0 1 -4,4 h-16 a4,4 0 0 1 -4,-4 v-16 a4,4 0 0 1 4,-4"/><path fill="#ffffff" d="M59.9 198.1L59.9 198.1Q60.6 198.1 61.1 197.7Q61.6 197.3 61.7 196.7L61.7 196.7L62.9 196.7Q62.8 197.3 62.4 197.9Q62.0 198.4 61.3 198.8Q60.7 199.1 59.9 199.1L59.9 199.1Q58.4 199.1 57.5 198.1Q56.6 197.1 56.6 195.4L56.6 195.4L56.6 195.1Q56.6 194.1 57.0 193.2Q57.4 192.4 58.2 191.9Q58.9 191.5 59.9 191.5L59.9 191.5Q61.2 191.5 62.0 192.2Q62.8 192.9 62.9 194.1L62.9 194.1L61.7 194.1Q61.6 193.4 61.1 193.0Q60.6 192.5 59.9 192.5L59.9 192.5Q59.0 192.5 58.4 193.2Q57.9 193.9 57.9 195.2L57.9 195.2L57.9 195.4Q57.9 196.7 58.4 197.4Q58.9 198.1 59.9 198.1Z "/><mask id="satori_om-id-1-6-1"><rect x="80" y="187" width="22" height="16" fill="#fff"/></mask><path fill="#f1f5f9" d="M83.9 199.1L83.9 199.1Q84.6 199.1 85.1 198.7Q85.6 198.3 85.7 197.7L85.7 197.7L86.9 197.7Q86.8 198.3 86.4 198.9Q86.0 199.4 85.3 199.8Q84.7 200.1 83.9 200.1L83.9 200.1Q82.4 200.1 81.5 199.1Q80.6 198.1 80.6 196.4L80.6 196.4L80.6 196.1Q80.6 195.1 81.0 194.2Q81.4 193.4 82.2 192.9Q82.9 192.5 83.9 192.5L83.9 192.5Q85.2 192.5 86.0 193.2Q86.8 193.9 86.9 195.1L86.9 195.1L85.7 195.1Q85.6 194.4 85.1 194.0Q84.6 193.5 83.9 193.5L83.9 193.5Q83.0 193.5 82.4 194.2Q81.9 194.9 81.9 196.2L81.9 196.2L81.9 196.4Q81.9 197.7 82.4 198.4Q82.9 199.1 83.9 199.1ZM92.6 198.0L92.6 198.0Q92.6 197.5 92.2 197.2Q91.8 196.9 90.9 196.7Q89.9 196.5 89.3 196.2Q88.8 196.0 88.5 195.6Q88.2 195.2 88.2 194.6L88.2 194.6Q88.2 193.7 89.0 193.1Q89.8 192.5 91.0 192.5L91.0 192.5Q92.2 192.5 93.0 193.1Q93.8 193.8 93.8 194.8L93.8 194.8L92.5 194.8Q92.5 194.2 92.1 193.9Q91.6 193.5 91.0 193.5L91.0 193.5Q90.3 193.5 89.9 193.8Q89.5 194.1 89.5 194.6L89.5 194.6Q89.5 195.0 89.9 195.3Q90.2 195.5 91.2 195.7Q92.1 195.9 92.7 196.2Q93.3 196.5 93.6 196.9Q93.9 197.3 93.9 197.9L93.9 197.9Q93.9 198.9 93.1 199.5Q92.3 200.1 91.0 200.1L91.0 200.1Q90.1 200.1 89.4 199.8Q88.8 199.5 88.4 198.9Q88.0 198.4 88.0 197.7L88.0 197.7L89.2 197.7Q89.3 198.3 89.8 198.7Q90.2 199.1 91.0 199.1L91.0 199.1Q91.7 199.1 92.2 198.8Q92.6 198.5 92.6 198.0ZM99.8 198.0L99.8 198.0Q99.8 197.5 99.4 197.2Q99.0 196.9 98.1 196.7Q97.1 196.5 96.6 196.2Q96.0 196.0 95.7 195.6Q95.4 195.2 95.4 194.6L95.4 194.6Q95.4 193.7 96.2 193.1Q97.0 192.5 98.2 192.5L98.2 192.5Q99.4 192.5 100.2 193.1Q101.0 193.8 101.0 194.8L101.0 194.8L99.7 194.8Q99.7 194.2 99.3 193.9Q98.9 193.5 98.2 193.5L98.2 193.5Q97.5 193.5 97.1 193.8Q96.7 194.1 96.7 194.6L96.7 194.6Q96.7 195.0 97.1 195.3Q97.4 195.5 98.4 195.7Q99.3 195.9 99.9 196.2Q100.5 196.5 100.8 196.9Q101.1 197.3 101.1 197.9L101.1 197.9Q101.1 198.9 100.3 199.5Q99.5 200.1 98.2 200.1L98.2 200.1Q97.3 200.1 96.7 199.8Q96.0 199.5 95.6 198.9Q95.2 198.4 95.2 197.7L95.2 197.7L96.5 197.7Q96.5 198.3 97.0 198.7Q97.4 199.1 98.2 199.1L98.2 199.1Q98.9 199.1 99.4 198.8Q99.8 198.5 99.8 198.0Z "/><defs><clipPath id="satori_bc-id-1-7"><path x="129" y="172" width="78" height="46" d="M137,172 h62 a8,8 0 0 1 8,8 v30 a8,8 0 0 1 -8,8 h-62 a8,8 0 0 1 -8,-8 v-30 a8,8 0 0 1 8,-8"/></clipPath></defs><mask id="satori_om-id-1-7"><rect x="130" y="173" width="76" height="44" fill="#fff"/><path width="78" height="46" fill="none" stroke="#000" stroke-width="2" d="M131.343,174.343 A8,8 0 0 1 137,172 h62 a8,8 0 0 1 8,8 v30 a8,8 0 0 1 -8,8 h-62 a8,8 0 0 1 -8,-8 v-30 A8,8 0 0 1 131.343,174.343"/></mask><path x="129" y="172" width="78" height="46" fill="rgba(NaN, NaN, 20, 0.1)" d="M137,172 h62 a8,8 0 0 1 8,8 v30 a8,8 0 0 1 -8,8 h-62 a8,8 0 0 1 -8,-8 v-30 a8,8 0 0 1 8,-8"/><path width="78" height="46" clip-path="url(#satori_bc-id-1-7)" fill="none" stroke="rgba(NaN, NaN, 20, 0.3)" stroke-width="2" d="M131.343,174.343 A8,8 0 0 1 137,172 h62 a8,8 0 0 1 8,8 v30 a8,8 0 0 1 -8,8 h-62 a8,8 0 0 1 -8,-8 v-30 A8,8 0 0 1 131.343,174.343"/><mask id="satori_om-id-1-7-0"><rect x="144" y="183" width="24" height="24" fill="#fff"/></mask><path x="144" y="183" width="24" height="24" fill="hsl(114, 70%, 55%)" d="M148,183 h16 a4,4 0 0 1 4,4 v16 a4,4 0 0 1 -4,4 h-16 a4,4 0 0 1 -4,-4 v-16 a4,4 0 0 1 4,-4"/><path fill="#ffffff" d="M152.7 195.2L152.7 195.2Q152.7 193.5 153.5 192.5Q154.3 191.5 155.6 191.5L155.6 191.5Q156.9 191.5 157.7 192.4L157.7 192.4L157.7 191.6L158.9 191.6L158.9 198.8Q158.9 200.2 158.1 201.1Q157.2 201.9 155.8 201.9L155.8 201.9Q155.0 201.9 154.2 201.6Q153.4 201.2 153.0 200.6L153.0 200.6L153.7 199.9Q154.5 200.9 155.7 200.9L155.7 200.9Q156.6 200.9 157.1 200.3Q157.6 199.8 157.6 198.9L157.6 198.9L157.6 198.3Q156.9 199.1 155.6 199.1L155.6 199.1Q154.3 199.1 153.5 198.1Q152.7 197.0 152.7 195.2ZM153.9 195.4L153.9 195.4Q153.9 196.6 154.4 197.3Q155.0 198.1 155.9 198.1L155.9 198.1Q157.1 198.1 157.6 197.0L157.6 197.0L157.6 193.6Q157.1 192.5 155.9 192.5L155.9 192.5Q155.0 192.5 154.4 193.2Q153.9 194.0 153.9 195.4Z "/><mask id="satori_om-id-1-7-1"><rect x="176" y="187" width="16" height="16" fill="#fff"/></mask><path fill="#f1f5f9" d="M176.7 196.2L176.7 196.2Q176.7 194.5 177.5 193.5Q178.3 192.5 179.6 192.5L179.6 192.5Q180.9 192.5 181.7 193.4L181.7 193.4L181.7 192.6L182.9 192.6L182.9 199.8Q182.9 201.2 182.1 202.1Q181.2 202.9 179.8 202.9L179.8 202.9Q179.0 202.9 178.2 202.6Q177.4 202.2 177.0 201.6L177.0 201.6L177.7 200.9Q178.5 201.9 179.7 201.9L179.7 201.9Q180.6 201.9 181.1 201.3Q181.6 200.8 181.6 199.9L181.6 199.9L181.6 199.3Q180.9 200.1 179.6 200.1L179.6 200.1Q178.3 200.1 177.5 199.1Q176.7 198.0 176.7 196.2ZM177.9 196.4L177.9 196.4Q177.9 197.6 178.4 198.3Q179.0 199.1 179.9 199.1L179.9 199.1Q181.1 199.1 181.6 198.0L181.6 198.0L181.6 194.6Q181.1 193.5 179.9 193.5L179.9 193.5Q179.0 193.5 178.4 194.2Q177.9 195.0 177.9 196.4ZM186.2 192.6L186.2 200.0L184.9 200.0L184.9 192.6L186.2 192.6ZM184.8 190.6L184.8 190.6Q184.8 190.3 185.0 190.1Q185.2 189.9 185.6 189.9Q185.9 189.9 186.1 190.1Q186.3 190.3 186.3 190.6Q186.3 190.9 186.1 191.1Q185.9 191.3 185.6 191.3Q185.2 191.3 185.0 191.1Q184.8 190.9 184.8 190.6ZM188.7 190.8L189.9 190.8L189.9 192.6L191.3 192.6L191.3 193.6L189.9 193.6L189.9 198.2Q189.9 198.6 190.1 198.8Q190.3 199.0 190.7 199.0L190.7 199.0Q191.0 199.0 191.3 199.0L191.3 199.0L191.3 200.0Q190.8 200.1 190.4 200.1L190.4 200.1Q189.5 200.1 189.1 199.6Q188.7 199.1 188.7 198.2L188.7 198.2L188.7 193.6L187.3 193.6L187.3 192.6L188.7 192.6L188.7 190.8Z "/><defs><clipPath id="satori_bc-id-1-8"><path x="219" y="172" width="102" height="46" d="M227,172 h86 a8,8 0 0 1 8,8 v30 a8,8 0 0 1 -8,8 h-86 a8,8 0 0 1 -8,-8 v-30 a8,8 0 0 1 8,-8"/></clipPath></defs><mask id="satori_om-id-1-8"><rect x="220" y="173" width="100" height="44" fill="#fff"/><path width="102" height="46" fill="none" stroke="#000" stroke-width="2" d="M221.343,174.343 A8,8 0 0 1 227,172 h86 a8,8 0 0 1 8,8 v30 a8,8 0 0 1 -8,8 h-86 a8,8 0 0 1 -8,-8 v-30 A8,8 0 0 1 221.343,174.343"/></mask><path x="219" y="172" width="102" height="46" fill="rgba(NaN, NaN, 51, 0.1)" d="M227,172 h86 a8,8 0 0 1 8,8 v30 a8,8 0 0 1 -8,8 h-86 a8,8 0 0 1 -8,-8 v-30 a8,8 0 0 1 8,-8"/><path width="102" height="46" clip-path="url(#satori_bc-id-1-8)" fill="none" stroke="rgba(NaN, NaN, 51, 0.3)" stroke-width="2" d="M221.343,174.343 A8,8 0 0 1 227,172 h86 a8,8 0 0 1 8,8 v30 a8,8 0 0 1 -8,8 h-86 a8,8 0 0 1 -8,-8 v-30 A8,8 0 0 1 221.343,174.343"/><mask id="satori_om-id-1-8-0"><rect x="234" y="183" width="24" height="24" fill="#fff"/></mask><path x="234" y="183" width="24" height="24" fill="hsl(333, 70%, 55%)" d="M238,183 h16 a4,4 0 0 1 4,4 v16 a4,4 0 0 1 -4,4 h-16 a4,4 0 0 1 -4,-4 v-16 a4,4 0 0 1 4,-4"/><path fill="#ffffff" d="M242.7 195.2L242.7 195.2Q242.7 193.5 243.5 192.5Q244.3 191.5 245.6 191.5L245.6 191.5Q246.9 191.5 247.7 192.4L247.7 192.4L247.7 191.6L248.9 191.6L248.9 198.8Q248.9 200.2 248.1 201.1Q247.2 201.9 245.8 201.9L245.8 201.9Q245.0 201.9 244.2 201.6Q243.4 201.2 243.0 200.6L243.0 200.6L243.7 199.9Q244.5 200.9 245.7 200.9L245.7 200.9Q246.6 200.9 247.1 200.3Q247.6 199.8 247.6 198.9L247.6 198.9L247.6 198.3Q246.9 199.1 245.6 199.1L245.6 199.1Q244.3 199.1 243.5 198.1Q242.7 197.0 242.7 195.2ZM243.9 195.4L243.9 195.4Q243.9 196.6 244.4 197.3Q245.0 198.1 245.9 198.1L245.9 198.1Q247.1 198.1 247.6 197.0L247.6 197.0L247.6 193.6Q247.1 192.5 245.9 192.5L245.9 192.5Q245.0 192.5 244.4 193.2Q243.9 194.0 243.9 195.4Z "/><mask id="satori_om-id-1-8-1"><rect x="266" y="187" width="40" height="16" fill="#fff"/></mask><path fill="#f1f5f9" d="M266.7 196.2L266.7 196.2Q266.7 194.5 267.5 193.5Q268.3 192.5 269.6 192.5L269.6 192.5Q270.9 192.5 271.7 193.4L271.7 193.4L271.7 192.6L272.9 192.6L272.9 199.8Q272.9 201.2 272.1 202.1Q271.2 202.9 269.8 202.9L269.8 202.9Q269.0 202.9 268.2 202.6Q267.4 202.2 267.0 201.6L267.0 201.6L267.7 200.9Q268.5 201.9 269.7 201.9L269.7 201.9Q270.6 201.9 271.1 201.3Q271.6 200.8 271.6 199.9L271.6 199.9L271.6 199.3Q270.9 200.1 269.6 200.1L269.6 200.1Q268.3 200.1 267.5 199.1Q266.7 198.0 266.7 196.2ZM267.9 196.4L267.9 196.4Q267.9 197.6 268.4 198.3Q269.0 199.1 269.9 199.1L269.9 199.1Q271.1 199.1 271.6 198.0L271.6 198.0L271.6 194.6Q271.1 193.5 269.9 193.5L269.9 193.5Q269.0 193.5 268.4 194.2Q267.9 195.0 267.9 196.4ZM276.2 192.6L276.2 200.0L274.9 200.0L274.9 192.6L276.2 192.6ZM274.8 190.6L274.8 190.6Q274.8 190.3 275.0 190.1Q275.2 189.9 275.6 189.9Q275.9 189.9 276.1 190.1Q276.3 190.3 276.3 190.6Q276.3 190.9 276.1 191.1Q275.9 191.3 275.6 191.3Q275.2 191.3 275.0 191.1Q274.8 190.9 274.8 190.6ZM278.7 190.8L279.9 190.8L279.9 192.6L281.3 192.6L281.3 193.6L279.9 193.6L279.9 198.2Q279.9 198.6 280.1 198.8Q280.3 199.0 280.7 199.0L280.7 199.0Q281.0 199.0 281.3 199.0L281.3 199.0L281.3 200.0Q280.8 200.1 280.4 200.1L280.4 200.1Q279.5 200.1 279.1 199.6Q278.7 199.1 278.7 198.2L278.7 198.2L278.7 193.6L277.3 193.6L277.3 192.6L278.7 192.6L278.7 190.8ZM284.0 189.5L284.0 193.5Q284.9 192.5 286.2 192.5L286.2 192.5Q288.6 192.5 288.6 195.1L288.6 195.1L288.6 200.0L287.3 200.0L287.3 195.1Q287.3 194.3 287.0 193.9Q286.6 193.5 285.9 193.5L285.9 193.5Q285.2 193.5 284.8 193.9Q284.3 194.2 284.0 194.7L284.0 194.7L284.0 200.0L282.8 200.0L282.8 189.5L284.0 189.5ZM295.1 200.0L295.1 199.3Q294.3 200.1 292.9 200.1L292.9 200.1Q291.7 200.1 291.1 199.4Q290.5 198.8 290.5 197.4L290.5 197.4L290.5 192.6L291.7 192.6L291.7 197.4Q291.7 199.1 293.1 199.1L293.1 199.1Q294.5 199.1 295.0 198.0L295.0 198.0L295.0 192.6L296.3 192.6L296.3 200.0L295.1 200.0ZM304.5 196.3L304.5 196.4Q304.5 198.1 303.7 199.1Q302.9 200.1 301.6 200.1L301.6 200.1Q300.2 200.1 299.4 199.1L299.4 199.1L299.4 200.0L298.2 200.0L298.2 189.5L299.5 189.5L299.5 193.4Q300.2 192.5 301.6 192.5Q302.9 192.5 303.7 193.5Q304.5 194.5 304.5 196.3L304.5 196.3ZM303.2 196.2L303.2 196.2Q303.2 194.9 302.7 194.2Q302.2 193.5 301.3 193.5L301.3 193.5Q300.0 193.5 299.5 194.7L299.5 194.7L299.5 197.9Q300.1 199.1 301.3 199.1L301.3 199.1Q302.2 199.1 302.7 198.3Q303.2 197.6 303.2 196.2Z "/><defs><clipPath id="satori_bc-id-1-9"><path x="333" y="172" width="107" height="46" d="M341,172 h91 a8,8 0 0 1 8,8 v30 a8,8 0 0 1 -8,8 h-91 a8,8 0 0 1 -8,-8 v-30 a8,8 0 0 1 8,-8"/></clipPath></defs><mask id="satori_om-id-1-9"><rect x="334" y="173" width="105" height="44" fill="#fff"/><path width="107" height="46" fill="none" stroke="#000" stroke-width="2" d="M335.343,174.343 A8,8 0 0 1 341,172 h91 a8,8 0 0 1 8,8 v30 a8,8 0 0 1 -8,8 h-91 a8,8 0 0 1 -8,-8 v-30 A8,8 0 0 1 335.343,174.343"/></mask><path x="333" y="172" width="107" height="46" fill="rgba(NaN, NaN, 2, 0.1)" d="M341,172 h91 a8,8 0 0 1 8,8 v30 a8,8 0 0 1 -8,8 h-91 a8,8 0 0 1 -8,-8 v-30 a8,8 0 0 1 8,-8"/><path width="107" height="46" clip-path="url(#satori_bc-id-1-9)" fill="none" stroke="rgba(NaN, NaN, 2, 0.3)" stroke-width="2" d="M335.343,174.343 A8,8 0 0 1 341,172 h91 a8,8 0 0 1 8,8 v30 a8,8 0 0 1 -8,8 h-91 a8,8 0 0 1 -8,-8 v-30 A8,8 0 0 1 335.343,174.343"/><mask id="satori_om-id-1-9-0"><rect x="348" y="183" width="24" height="24" fill="#fff"/></mask><path x="348" y="183" width="24" height="24" fill="hsl(302, 70%, 55%)" d="M352,183 h16 a4,4 0 0 1 4,4 v16 a4,4 0 0 1 -4,4 h-16 a4,4 0 0 1 -4,-4 v-16 a4,4 0 0 1 4,-4"/><path fill="#ffffff" d="M357.5 191.6L359.4 197.3L361.2 191.6L362.5 191.6L359.9 199.0L358.9 199.0L356.2 191.6L357.5 191.6Z "/><mask id="satori_om-id-1-9-1"><rect x="380" y="187" width="45" height="16" fill="#fff"/></mask><path fill="#f1f5f9" d="M381.5 192.6L383.4 198.3L385.2 192.6L386.5 192.6L383.9 200.0L382.9 200.0L380.2 192.6L381.5 192.6ZM392.0 198.0L392.0 198.0Q392.0 197.5 391.7 197.2Q391.3 196.9 390.3 196.7Q389.4 196.5 388.8 196.2Q388.2 196.0 388.0 195.6Q387.7 195.2 387.7 194.6L387.7 194.6Q387.7 193.7 388.5 193.1Q389.2 192.5 390.4 192.5L390.4 192.5Q391.7 192.5 392.5 193.1Q393.2 193.8 393.2 194.8L393.2 194.8L392.0 194.8Q392.0 194.2 391.5 193.9Q391.1 193.5 390.4 193.5L390.4 193.5Q389.7 193.5 389.3 193.8Q388.9 194.1 388.9 194.6L388.9 194.6Q388.9 195.0 389.3 195.3Q389.7 195.5 390.6 195.7Q391.6 195.9 392.2 196.2Q392.7 196.5 393.0 196.9Q393.3 197.3 393.3 197.9L393.3 197.9Q393.3 198.9 392.5 199.5Q391.7 200.1 390.5 200.1L390.5 200.1Q389.6 200.1 388.9 199.8Q388.2 199.5 387.8 198.9Q387.4 198.4 387.4 197.7L387.4 197.7L388.7 197.7Q388.7 198.3 389.2 198.7Q389.7 199.1 390.5 199.1L390.5 199.1Q391.2 199.1 391.6 198.8Q392.0 198.5 392.0 198.0ZM397.9 199.1L397.9 199.1Q398.6 199.1 399.1 198.7Q399.6 198.3 399.7 197.7L399.7 197.7L400.9 197.7Q400.8 198.3 400.4 198.9Q400.0 199.4 399.3 199.8Q398.7 200.1 397.9 200.1L397.9 200.1Q396.4 200.1 395.5 199.1Q394.6 198.1 394.6 196.4L394.6 196.4L394.6 196.1Q394.6 195.1 395.0 194.2Q395.4 193.4 396.2 192.9Q396.9 192.5 397.9 192.5L397.9 192.5Q399.2 192.5 400.0 193.2Q400.8 193.9 400.9 195.1L400.9 195.1L399.7 195.1Q399.6 194.4 399.1 194.0Q398.6 193.5 397.9 193.5L397.9 193.5Q397.0 193.5 396.4 194.2Q395.9 194.9 395.9 196.2L395.9 196.2L395.9 196.4Q395.9 197.7 396.4 198.4Q396.9 199.1 397.9 199.1ZM402.0 196.3L402.0 196.2Q402.0 195.1 402.4 194.3Q402.8 193.4 403.6 192.9Q404.3 192.5 405.3 192.5L405.3 192.5Q406.8 192.5 407.8 193.5Q408.7 194.5 408.7 196.3L408.7 196.3L408.7 196.4Q408.7 197.5 408.3 198.3Q407.9 199.2 407.1 199.6Q406.3 200.1 405.3 200.1L405.3 200.1Q403.8 200.1 402.9 199.1Q402.0 198.0 402.0 196.3L402.0 196.3ZM403.2 196.4L403.2 196.4Q403.2 197.6 403.8 198.3Q404.4 199.1 405.3 199.1L405.3 199.1Q406.3 199.1 406.9 198.3Q407.4 197.6 407.4 196.2L407.4 196.2Q407.4 195.0 406.8 194.2Q406.3 193.5 405.3 193.5L405.3 193.5Q404.4 193.5 403.8 194.2Q403.2 195.0 403.2 196.4ZM410.0 196.3L410.0 196.2Q410.0 194.5 410.8 193.5Q411.6 192.5 412.9 192.5L412.9 192.5Q414.2 192.5 414.9 193.3L414.9 193.3L414.9 189.5L416.2 189.5L416.2 200.0L415.0 200.0L415.0 199.2Q414.2 200.1 412.9 200.1L412.9 200.1Q411.6 200.1 410.8 199.1Q410.0 198.0 410.0 196.3L410.0 196.3ZM411.2 196.4L411.2 196.4Q411.2 197.6 411.7 198.3Q412.3 199.1 413.2 199.1L413.2 199.1Q414.4 199.1 414.9 198.0L414.9 198.0L414.9 194.6Q414.4 193.5 413.2 193.5L413.2 193.5Q412.3 193.5 411.7 194.2Q411.2 195.0 411.2 196.4ZM421.2 200.1L421.2 200.1Q419.7 200.1 418.8 199.1Q417.8 198.1 417.8 196.5L417.8 196.5L417.8 196.3Q417.8 195.2 418.3 194.3Q418.7 193.4 419.4 192.9Q420.2 192.5 421.1 192.5L421.1 192.5Q422.5 192.5 423.3 193.4Q424.1 194.4 424.1 196.1L424.1 196.1L424.1 196.7L419.1 196.7Q419.1 197.7 419.7 198.4Q420.4 199.1 421.3 199.1L421.3 199.1Q422.0 199.1 422.4 198.8Q422.9 198.5 423.3 198.1L423.3 198.1L424.0 198.7Q423.1 200.1 421.2 200.1ZM421.1 193.5L421.1 193.5Q420.3 193.5 419.8 194.1Q419.3 194.6 419.1 195.6L419.1 195.6L422.9 195.6L422.9 195.5Q422.8 194.6 422.3 194.0Q421.9 193.5 421.1 193.5Z "/></svg>